<?xml version="1.0" standalone="no"?>
<!DOCTYPE svg PUBLIC "-//W3C//DTD SVG 20010904//EN"
 "http://www.w3.org/TR/2001/REC-SVG-20010904/DTD/svg10.dtd">
<svg version="1.0" xmlns="http://www.w3.org/2000/svg"
 width="1787.000000pt" height="933.000000pt" viewBox="0 0 1787.000000 933.000000"
 preserveAspectRatio="xMidYMid meet">

<g transform="translate(0.000000,933.000000) scale(0.100000,-0.100000)"
fill="#000000" stroke="none">
<path d="M7667 6483 c579 -2 1527 -2 2105 0 579 1 106 2 -1052 2 -1158 0
-1631 -1 -1053 -2z"/>
<path d="M6575 4665 c0 -979 1 -1378 2 -887 2 492 2 1293 0 1780 -1 488 -2 86
-2 -893z"/>
<path d="M10865 4665 c0 -979 1 -1378 2 -887 2 492 2 1293 0 1780 -1 488 -2
86 -2 -893z"/>
<path d="M8860 6040 c0 -11 7 -20 15 -20 8 0 15 9 15 20 0 11 -7 20 -15 20 -8
0 -15 -9 -15 -20z"/>
<path d="M8412 5968 l3 -73 44 0 c27 0 46 5 49 13 2 8 -7 12 -27 12 -30 0 -30
1 -33 57 -2 46 -7 58 -21 61 -16 3 -18 -4 -15 -70z"/>
<path d="M8546 5994 c-35 -35 -10 -104 38 -104 36 0 59 24 59 60 0 53 -61 81
-97 44z m59 -44 c0 -29 -32 -41 -41 -16 -9 24 4 48 23 44 12 -2 18 -12 18 -28z"/>
<path d="M8686 5997 c-21 -16 -24 -60 -6 -82 7 -8 23 -15 37 -15 14 0 22 -4
18 -11 -4 -5 -17 -9 -28 -8 -36 2 -40 0 -27 -16 17 -21 56 -19 80 5 28 28 29
115 1 130 -27 14 -54 13 -75 -3z m54 -42 c0 -25 -23 -35 -35 -15 -10 16 2 40
20 40 9 0 15 -9 15 -25z"/>
<path d="M8860 5950 c0 -47 3 -60 15 -60 12 0 15 13 15 60 0 47 -3 60 -15 60
-12 0 -15 -13 -15 -60z"/>
<path d="M8936 5997 c-24 -18 -19 -100 7 -105 14 -3 17 4 17 43 0 39 3 46 18
43 12 -2 18 -15 20 -46 2 -28 8 -42 18 -42 10 0 14 13 14 50 0 38 -4 52 -19
60 -26 14 -54 13 -75 -3z"/>
<path d="M8273 5245 c0 -33 2 -45 4 -27 2 18 2 45 0 60 -2 15 -4 0 -4 -33z"/>
<path d="M7268 5277 c-7 -22 7 -80 20 -83 7 -1 8 0 2 3 -12 6 -13 60 -1 65 5
2 3 8 -4 15 -10 9 -14 9 -17 0z"/>
<path d="M7173 5230 c0 -25 2 -35 4 -22 2 12 2 32 0 45 -2 12 -4 2 -4 -23z"/>
<path d="M7217 5263 c6 -4 13 -24 16 -43 4 -34 4 -33 3 4 -1 26 -6 41 -16 43
-10 3 -11 2 -3 -4z"/>
<path d="M7630 5266 c0 -2 7 -7 16 -10 8 -3 12 -2 9 4 -6 10 -25 14 -25 6z"/>
<path d="M7692 5245 c0 -16 2 -22 5 -12 2 9 2 23 0 30 -3 6 -5 -1 -5 -18z"/>
<path d="M7753 5230 c0 -25 2 -35 4 -22 2 12 2 32 0 45 -2 12 -4 2 -4 -23z"/>
<path d="M7920 5266 c0 -2 7 -7 16 -10 8 -3 12 -2 9 4 -6 10 -25 14 -25 6z"/>
<path d="M8233 5230 c0 -25 2 -35 4 -22 2 12 2 32 0 45 -2 12 -4 2 -4 -23z"/>
<path d="M7591 5235 c-1 -25 17 -45 39 -44 10 0 9 3 -5 8 -11 4 -23 19 -26 32
-6 21 -7 21 -8 4z"/>
<path d="M7881 5235 c-1 -25 17 -45 39 -44 10 0 9 3 -5 8 -11 4 -23 19 -26 32
-6 21 -7 21 -8 4z"/>
<path d="M8130 5224 c0 -17 27 -37 42 -31 8 4 7 6 -4 6 -9 1 -22 9 -27 19 -6
9 -11 12 -11 6z"/>
<path d="M7708 5198 c5 -5 16 -8 23 -6 8 3 3 7 -10 11 -17 4 -21 3 -13 -5z"/>
<path d="M7108 5193 c6 -2 18 -2 25 0 6 3 1 5 -13 5 -14 0 -19 -2 -12 -5z"/>
<path d="M7348 5193 c7 -3 16 -2 19 1 4 3 -2 6 -13 5 -11 0 -14 -3 -6 -6z"/>
<path d="M8583 4545 c0 -33 2 -45 4 -27 2 18 2 45 0 60 -2 15 -4 0 -4 -33z"/>
<path d="M7268 4577 c-7 -22 7 -80 20 -83 7 -1 8 0 2 3 -12 6 -13 60 -1 65 5
2 3 8 -4 15 -10 9 -14 9 -17 0z"/>
<path d="M7173 4530 c0 -25 2 -35 4 -22 2 12 2 32 0 45 -2 12 -4 2 -4 -23z"/>
<path d="M7217 4563 c6 -4 13 -24 16 -43 4 -34 4 -33 3 4 -1 26 -6 41 -16 43
-10 3 -11 2 -3 -4z"/>
<path d="M7630 4566 c0 -2 7 -7 16 -10 8 -3 12 -2 9 4 -6 10 -25 14 -25 6z"/>
<path d="M7692 4545 c0 -16 2 -22 5 -12 2 9 2 23 0 30 -3 6 -5 -1 -5 -18z"/>
<path d="M7753 4530 c0 -25 2 -35 4 -22 2 12 2 32 0 45 -2 12 -4 2 -4 -23z"/>
<path d="M8048 4563 c-2 -5 -1 -24 3 -43 l6 -35 2 43 c1 39 -3 52 -11 35z"/>
<path d="M8164 4559 c-3 -6 -2 -15 3 -20 5 -5 9 -1 9 11 0 23 -2 24 -12 9z"/>
<path d="M8285 4560 c-3 -5 -1 -10 4 -10 6 0 11 5 11 10 0 6 -2 10 -4 10 -3 0
-8 -4 -11 -10z"/>
<path d="M8375 4560 c-3 -6 1 -7 9 -4 18 7 21 14 7 14 -6 0 -13 -4 -16 -10z"/>
<path d="M8461 4525 c2 -33 3 -35 6 -10 2 17 11 35 20 42 13 10 13 12 -6 10
-18 -1 -21 -7 -20 -42z"/>
<path d="M8525 4560 c-3 -6 1 -7 9 -4 18 7 21 14 7 14 -6 0 -13 -4 -16 -10z"/>
<path d="M7591 4535 c-1 -25 17 -45 39 -44 10 0 9 3 -5 8 -11 4 -23 19 -26 32
-6 21 -7 21 -8 4z"/>
<path d="M7981 4535 c-1 -25 17 -45 39 -44 10 0 9 3 -5 8 -11 4 -23 19 -26 32
-6 21 -7 21 -8 4z"/>
<path d="M8431 4532 c-1 -13 -10 -26 -23 -32 -16 -6 -18 -9 -7 -9 22 -1 42 24
36 46 -4 14 -5 13 -6 -5z"/>
<path d="M8125 4518 c4 -11 0 -18 -12 -21 -15 -4 -16 -5 -1 -6 22 -1 33 18 19
32 -9 9 -11 8 -6 -5z"/>
<path d="M8256 4507 c3 -10 9 -15 12 -12 3 3 0 11 -7 18 -10 9 -11 8 -5 -6z"/>
<path d="M7708 4498 c5 -5 16 -8 23 -6 8 3 3 7 -10 11 -17 4 -21 3 -13 -5z"/>
<path d="M8528 4498 c5 -5 16 -8 23 -6 8 3 3 7 -10 11 -17 4 -21 3 -13 -5z"/>
<path d="M7108 4493 c6 -2 18 -2 25 0 6 3 1 5 -13 5 -14 0 -19 -2 -12 -5z"/>
<path d="M7348 4493 c7 -3 16 -2 19 1 4 3 -2 6 -13 5 -11 0 -14 -3 -6 -6z"/>
<path d="M7918 4493 c7 -3 16 -2 19 1 4 3 -2 6 -13 5 -11 0 -14 -3 -6 -6z"/>
<path d="M6945 4075 c-25 -24 -25 -24 -25 -235 0 -211 0 -211 25 -235 l24 -25
1751 0 1751 0 24 25 c25 24 25 24 25 235 0 211 0 211 -25 235 l-24 25 -1751 0
-1751 0 -24 -25z m1905 -225 c0 -47 -3 -60 -15 -60 -12 0 -15 13 -15 60 0 47
3 60 15 60 12 0 15 -13 15 -60z m-340 5 c0 -33 4 -45 15 -45 8 0 15 -4 15 -10
0 -5 -13 -10 -30 -10 -30 0 -30 1 -30 55 0 42 3 55 15 55 11 0 15 -12 15 -45z
m125 1 c17 -26 11 -52 -15 -66 -34 -18 -70 6 -70 47 0 43 60 57 85 19z m113
-40 l-3 -61 -39 0 c-24 0 -41 5 -44 14 -3 10 3 12 27 6 20 -4 31 -3 31 5 0 6
-4 8 -10 5 -19 -12 -50 15 -50 43 0 37 16 52 57 50 l34 -1 -3 -61z m202 44
c15 -28 13 -70 -4 -70 -9 0 -16 12 -18 33 -2 17 -7 32 -13 32 -5 0 -11 -15
-13 -32 -5 -52 -32 -43 -32 10 0 43 1 44 35 45 25 1 38 -4 45 -18z"/>
<path d="M8586 3853 c-3 -4 -6 -15 -6 -25 0 -24 33 -21 38 3 3 17 -21 33 -32
22z"/>
<path d="M8691 3850 c-17 -10 -7 -40 14 -40 8 0 15 9 15 19 0 24 -12 32 -29
21z"/>
<path d="M7841 3344 c0 -11 3 -14 6 -6 3 7 2 16 -1 19 -3 4 -6 -2 -5 -13z"/>
<path d="M7560 3300 c0 -44 3 -50 21 -50 37 0 59 19 59 51 0 22 -6 32 -26 39
-48 19 -54 14 -54 -40z m51 30 c23 -13 25 -43 4 -60 -22 -19 -45 -5 -45 28 0
42 9 49 41 32z"/>
<path d="M7962 3300 c1 -46 2 -49 7 -20 4 22 12 35 21 35 9 0 17 -13 21 -35
l6 -35 2 38 c0 20 -3 38 -9 39 -5 0 -16 1 -22 2 -7 1 -16 8 -20 16 -4 8 -6
-10 -6 -40z"/>
<path d="M9163 3343 c-7 -2 -13 -9 -13 -15 0 -6 6 -5 15 2 11 9 19 10 27 2 13
-13 2 -32 -18 -32 -8 0 -14 -5 -14 -10 0 -7 6 -7 19 0 28 15 35 29 21 45 -13
16 -17 17 -37 8z"/>
<path d="M9505 3340 c3 -5 8 -10 11 -10 2 0 4 5 4 10 0 6 -5 10 -11 10 -5 0
-7 -4 -4 -10z"/>
<path d="M7868 3334 c-10 -9 8 -77 20 -80 7 -1 8 0 2 3 -14 7 -13 60 2 65 8 3
6 6 -4 10 -9 4 -18 5 -20 2z"/>
<path d="M9102 3298 c2 -23 9 -43 16 -46 11 -3 11 -1 0 17 -10 16 -10 25 -1
40 10 16 9 20 -3 25 -12 5 -15 -2 -12 -36z"/>
<path d="M9277 3333 c-4 -3 -6 -25 -6 -47 1 -23 3 -33 6 -23 5 19 14 22 29 7
8 -8 11 -1 12 22 1 37 -22 60 -41 41z m25 -35 c-15 -15 -26 -4 -18 18 5 13 9
15 18 6 9 -9 9 -15 0 -24z"/>
<path d="M9610 3314 c0 -17 7 -39 16 -50 15 -18 15 -18 8 5 -3 13 -2 26 3 30
6 3 2 14 -8 25 -19 19 -19 19 -19 -10z"/>
<path d="M7672 3318 c-19 -19 -14 -56 8 -63 24 -8 50 10 50 34 0 19 -19 41
-35 41 -6 0 -16 -5 -23 -12z m46 -32 c-2 -13 -10 -21 -23 -21 -23 0 -33 34
-14 45 20 13 40 -1 37 -24z"/>
<path d="M7751 3285 c1 -27 3 -32 6 -15 11 57 47 58 56 2 4 -25 4 -24 6 5 1
34 -11 48 -46 48 -20 1 -23 -4 -22 -40z"/>
<path d="M8057 3318 c-20 -11 -22 -41 -4 -56 6 -5 24 -10 40 -10 24 0 27 4 27
37 0 31 -3 36 -23 37 -13 1 -31 -3 -40 -8z m41 -22 c6 -29 -15 -43 -35 -24
-14 14 -14 20 -3 33 16 19 34 15 38 -9z"/>
<path d="M8147 3293 c9 -24 20 -43 24 -43 9 0 33 69 26 76 -3 3 -8 -8 -12 -25
-6 -31 -25 -43 -25 -18 0 7 -7 22 -15 33 -12 15 -11 11 2 -23z"/>
<path d="M8232 3321 c-20 -12 -11 -65 12 -69 10 -2 23 1 29 7 7 7 4 8 -10 5
-12 -3 -24 -1 -27 5 -5 7 4 11 23 11 36 0 42 23 12 40 -23 12 -22 12 -39 1z
m36 -19 c2 -7 -6 -12 -17 -12 -21 0 -27 11 -14 24 9 9 26 2 31 -12z"/>
<path d="M8351 3317 c-12 -12 -15 -56 -3 -59 4 0 19 -2 35 -3 25 -2 27 1 27
34 0 31 -3 36 -24 37 -13 1 -29 -3 -35 -9z m47 -31 c-2 -13 -10 -21 -23 -21
-23 0 -33 34 -14 45 20 13 40 -1 37 -24z"/>
<path d="M8440 3291 c0 -23 2 -41 4 -41 8 0 12 71 4 76 -4 3 -8 -13 -8 -35z"/>
<path d="M8477 3319 c6 -8 13 -27 16 -44 4 -23 4 -20 3 9 -1 25 -6 41 -16 44
-12 4 -13 2 -3 -9z"/>
<path d="M8577 3318 c-20 -11 -22 -41 -4 -56 6 -5 24 -10 40 -10 24 0 27 4 27
37 0 31 -3 36 -23 37 -13 1 -31 -3 -40 -8z m41 -22 c6 -29 -15 -43 -35 -24
-14 14 -14 20 -3 33 16 19 34 15 38 -9z"/>
<path d="M8672 3321 c-20 -12 -11 -65 12 -69 10 -2 22 0 27 5 6 6 1 9 -13 9
-14 -1 -24 6 -26 18 -6 27 13 42 33 26 8 -7 15 -8 15 -2 0 5 -7 13 -16 16 -19
7 -16 7 -32 -3z"/>
<path d="M8758 3319 c-41 -23 -7 -82 35 -61 21 11 21 11 -4 6 -32 -7 -48 21
-25 44 13 13 17 13 33 1 16 -13 17 -12 4 4 -15 20 -19 20 -43 6z"/>
<path d="M8836 3314 c-19 -18 -19 -20 -6 -45 17 -31 70 -18 70 17 0 14 -27 44
-40 44 -5 0 -16 -7 -24 -16z m43 -13 c8 -14 7 -22 -4 -31 -22 -19 -48 5 -34
31 5 10 14 19 19 19 5 0 14 -9 19 -19z"/>
<path d="M8923 3295 c2 -36 5 -40 30 -41 25 -1 27 1 26 40 l-2 41 -6 -35 c-4
-22 -12 -35 -21 -35 -9 0 -18 13 -22 35 l-6 35 1 -40z"/>
<path d="M9011 3285 c1 -27 3 -32 6 -15 11 57 47 58 56 2 4 -25 4 -24 6 5 1
34 -11 48 -46 48 -20 1 -23 -4 -22 -40z"/>
<path d="M9363 3313 c-19 -7 -16 -50 4 -57 9 -4 21 -2 27 4 7 7 7 11 1 10 -26
-5 -38 2 -17 10 12 5 22 14 22 19 0 11 -21 19 -37 14z m22 -13 c3 -5 -1 -10
-10 -10 -9 0 -13 5 -10 10 3 6 8 10 10 10 2 0 7 -4 10 -10z"/>
<path d="M9430 3305 c-15 -18 2 -45 29 -45 13 0 14 -2 1 -9 -8 -6 -19 -7 -25
-4 -6 4 -6 2 1 -6 6 -6 18 -9 27 -5 23 8 23 69 1 78 -21 8 -20 8 -34 -9z m35
-25 c-5 -8 -11 -8 -17 -2 -6 6 -7 16 -3 22 5 8 11 8 17 2 6 -6 7 -16 3 -22z"/>
<path d="M9513 3285 c0 -22 2 -30 4 -17 2 12 2 30 0 40 -3 9 -5 -1 -4 -23z"/>
<path d="M9551 3311 c-16 -10 -6 -31 15 -31 8 0 13 -4 9 -10 -3 -5 -13 -7 -23
-4 -14 5 -14 4 1 -6 27 -17 50 6 25 24 -22 16 -23 30 -2 22 8 -3 12 -2 9 4 -8
12 -16 12 -34 1z"/>
<path d="M9683 3313 c-19 -7 -16 -50 4 -57 9 -4 21 -2 27 4 7 7 7 11 1 10 -26
-5 -38 2 -17 10 12 5 22 14 22 19 0 11 -21 19 -37 14z m22 -13 c3 -5 -1 -10
-10 -10 -9 0 -13 5 -10 10 3 6 8 10 10 10 2 0 7 -4 10 -10z"/>
<path d="M9752 3308 c-15 -15 -16 -45 -2 -53 6 -3 10 4 10 17 0 13 5 29 12 36
7 7 8 12 2 12 -5 0 -15 -5 -22 -12z"/>
<path d="M9843 3313 c-15 -5 -17 -49 -4 -58 5 -3 11 7 13 22 4 37 21 36 29 -2
l7 -30 1 31 c1 21 -5 34 -15 38 -9 3 -16 6 -17 5 -1 0 -8 -3 -14 -6z"/>
<path d="M9922 3308 c-25 -25 0 -64 32 -52 21 8 21 50 0 58 -20 8 -18 8 -32
-6z m34 -33 c-5 -14 -9 -15 -21 -5 -12 10 -13 16 -4 27 15 18 34 1 25 -22z"/>
<path d="M9996 3295 c8 -41 23 -55 30 -27 4 12 10 19 15 16 5 -3 9 2 9 10 0
24 -18 19 -26 -6 -6 -21 -7 -20 -20 8 l-14 29 6 -30z"/>
<path d="M10071 3298 c0 -16 -6 -28 -12 -28 -5 0 -7 -5 -3 -11 10 -17 26 17
21 44 -4 18 -4 18 -6 -5z"/>
<path d="M7667 2843 c579 -2 1527 -2 2105 0 579 1 106 2 -1052 2 -1158 0
-1631 -1 -1053 -2z"/>
<path d="M4468 3 c2461 -2 6484 -2 8940 0 2457 1 444 2 -4473 2 -4917 0 -6927
-1 -4467 -2z"/>
</g>
</svg>
