<?xml version="1.0" standalone="no"?>
<!DOCTYPE svg PUBLIC "-//W3C//DTD SVG 20010904//EN"
 "http://www.w3.org/TR/2001/REC-SVG-20010904/DTD/svg10.dtd">
<svg version="1.0" xmlns="http://www.w3.org/2000/svg"
 width="1465.000000pt" height="931.000000pt" viewBox="0 0 1465.000000 931.000000"
 preserveAspectRatio="xMidYMid meet">

<g transform="translate(0.000000,931.000000) scale(0.100000,-0.100000)"
fill="#000000" stroke="none">
<path d="M6197 7163 c579 -2 1527 -2 2105 0 579 1 106 2 -1052 2 -1158 0
-1631 -1 -1053 -2z"/>
<path d="M5105 4645 c0 -1364 1 -1921 2 -1237 2 684 2 1800 0 2480 -1 680 -2
121 -2 -1243z"/>
<path d="M9395 4645 c0 -1364 1 -1921 2 -1237 2 684 2 1800 0 2480 -1 680 -2
121 -2 -1243z"/>
<path d="M7000 6720 c0 -11 7 -20 15 -20 8 0 15 9 15 20 0 11 -7 20 -15 20 -8
0 -15 -9 -15 -20z"/>
<path d="M7604 6729 c-10 -17 13 -36 27 -22 12 12 4 33 -11 33 -5 0 -12 -5
-16 -11z"/>
<path d="M6597 6713 c-4 -3 -7 -37 -7 -75 0 -54 3 -68 15 -68 8 0 15 9 15 19
0 22 22 41 27 24 9 -27 31 -46 47 -40 15 6 15 9 1 31 -11 16 -13 26 -6 31 19
11 13 63 -8 75 -22 11 -74 14 -84 3z m63 -43 c0 -13 -7 -20 -20 -20 -19 0 -27
20 -13 33 13 14 33 6 33 -13z"/>
<path d="M7180 6656 c0 -67 13 -91 46 -84 22 4 31 28 10 28 -10 0 -16 9 -16
25 0 16 6 25 15 25 8 0 15 7 15 15 0 8 -6 15 -14 15 -7 0 -16 9 -19 20 -3 11
-12 20 -21 20 -13 0 -16 -12 -16 -64z"/>
<path d="M7507 6713 c-4 -3 -7 -30 -7 -59 0 -55 19 -88 48 -82 21 4 28 28 8
28 -10 0 -16 9 -16 25 0 16 6 25 15 25 8 0 15 7 15 15 0 8 -6 15 -14 15 -7 0
-16 9 -19 20 -5 20 -18 26 -30 13z"/>
<path d="M6739 6669 c-47 -47 11 -118 75 -93 28 11 18 31 -13 26 -16 -2 -32 1
-35 7 -5 7 2 11 16 11 14 0 32 6 43 13 17 13 17 15 -3 35 -28 28 -56 28 -83 1z
m61 -19 c0 -5 -9 -10 -21 -10 -11 0 -17 5 -14 10 3 6 13 10 21 10 8 0 14 -4
14 -10z"/>
<path d="M6870 6670 c-11 -11 -20 -26 -20 -33 0 -25 31 -57 56 -57 14 0 22 -4
19 -10 -3 -5 -19 -10 -36 -10 -16 0 -29 -4 -29 -10 0 -16 50 -23 76 -11 22 10
24 17 24 75 0 49 -4 65 -16 70 -29 11 -54 6 -74 -14z m60 -35 c0 -25 -23 -35
-35 -15 -10 16 2 40 20 40 9 0 15 -9 15 -25z"/>
<path d="M7000 6630 c0 -47 3 -60 15 -60 12 0 15 13 15 60 0 47 -3 60 -15 60
-12 0 -15 -13 -15 -60z"/>
<path d="M7075 6676 c-16 -12 -18 -18 -9 -33 6 -10 21 -19 33 -21 11 -2 21 -8
21 -14 0 -6 -12 -8 -30 -4 -38 7 -42 -20 -4 -30 30 -8 74 10 74 29 0 19 -21
37 -42 37 -10 0 -18 5 -18 10 0 6 12 10 26 10 16 0 24 5 22 13 -6 18 -50 20
-73 3z"/>
<path d="M7300 6683 c-21 -8 -30 -24 -30 -55 0 -36 10 -58 26 -58 10 0 14 13
14 41 0 33 4 42 20 46 12 3 19 11 17 17 -4 13 -26 17 -47 9z"/>
<path d="M7383 6683 c-24 -9 -13 -23 17 -23 17 0 30 -4 30 -10 0 -5 -11 -10
-25 -10 -14 0 -29 -8 -35 -19 -19 -36 34 -64 84 -45 25 9 22 90 -3 104 -21 10
-47 12 -68 3z m52 -73 c-3 -5 -13 -10 -21 -10 -8 0 -14 5 -14 10 0 6 9 10 21
10 11 0 17 -4 14 -10z"/>
<path d="M7602 6633 c2 -46 7 -58 21 -61 16 -3 18 3 15 55 -2 46 -7 58 -21 61
-16 3 -18 -3 -15 -55z"/>
<path d="M7680 6670 c-11 -11 -20 -29 -20 -40 0 -25 34 -60 58 -60 32 0 62 29
62 60 0 53 -62 78 -100 40z m55 -40 c0 -13 -6 -25 -12 -27 -16 -6 -27 21 -19
43 9 23 31 11 31 -16z"/>
<path d="M7830 6683 c-21 -8 -30 -24 -30 -55 0 -36 10 -58 26 -58 10 0 14 13
14 46 0 38 3 45 18 42 12 -2 18 -15 20 -46 2 -28 8 -42 18 -42 18 0 20 90 2
108 -12 12 -42 15 -68 5z"/>
<path d="M5798 5957 c-7 -22 7 -80 20 -83 7 -1 8 0 2 3 -12 6 -13 60 -1 65 5
2 3 8 -4 15 -10 9 -14 9 -17 0z"/>
<path d="M5703 5910 c0 -25 2 -35 4 -22 2 12 2 32 0 45 -2 12 -4 2 -4 -23z"/>
<path d="M5747 5943 c6 -4 13 -24 16 -43 4 -34 4 -33 3 4 -1 26 -6 41 -16 43
-10 3 -11 2 -3 -4z"/>
<path d="M6160 5946 c0 -2 7 -7 16 -10 8 -3 12 -2 9 4 -6 10 -25 14 -25 6z"/>
<path d="M6222 5925 c0 -16 2 -22 5 -12 2 9 2 23 0 30 -3 6 -5 -1 -5 -18z"/>
<path d="M6283 5910 c0 -25 2 -35 4 -22 2 12 2 32 0 45 -2 12 -4 2 -4 -23z"/>
<path d="M6515 5940 c-3 -6 1 -7 9 -4 18 7 21 14 7 14 -6 0 -13 -4 -16 -10z"/>
<path d="M6613 5910 c0 -25 2 -35 4 -22 2 12 2 32 0 45 -2 12 -4 2 -4 -23z"/>
<path d="M6657 5943 c6 -4 13 -24 16 -43 4 -34 4 -33 3 4 -1 26 -6 41 -16 43
-10 3 -11 2 -3 -4z"/>
<path d="M6800 5946 c0 -2 7 -7 16 -10 8 -3 12 -2 9 4 -6 10 -25 14 -25 6z"/>
<path d="M6121 5915 c-1 -25 17 -45 39 -44 10 0 9 3 -5 8 -11 4 -23 19 -26 32
-6 21 -7 21 -8 4z"/>
<path d="M6732 5900 c0 -19 2 -27 5 -17 2 9 2 25 0 35 -3 9 -5 1 -5 -18z"/>
<path d="M6761 5915 c-1 -25 17 -45 39 -44 10 0 9 3 -5 8 -11 4 -23 19 -26 32
-6 21 -7 21 -8 4z"/>
<path d="M6238 5878 c5 -5 16 -8 23 -6 8 3 3 7 -10 11 -17 4 -21 3 -13 -5z"/>
<path d="M5638 5873 c6 -2 18 -2 25 0 6 3 1 5 -13 5 -14 0 -19 -2 -12 -5z"/>
<path d="M5878 5873 c7 -3 16 -2 19 1 4 3 -2 6 -13 5 -11 0 -14 -3 -6 -6z"/>
<path d="M6803 5225 c0 -33 2 -45 4 -27 2 18 2 45 0 60 -2 15 -4 0 -4 -33z"/>
<path d="M5798 5257 c-7 -22 7 -80 20 -83 7 -1 8 0 2 3 -12 6 -13 60 -1 65 5
2 3 8 -4 15 -10 9 -14 9 -17 0z"/>
<path d="M5703 5210 c0 -25 2 -35 4 -22 2 12 2 32 0 45 -2 12 -4 2 -4 -23z"/>
<path d="M5747 5243 c6 -4 13 -24 16 -43 4 -34 4 -33 3 4 -1 26 -6 41 -16 43
-10 3 -11 2 -3 -4z"/>
<path d="M6160 5246 c0 -2 7 -7 16 -10 8 -3 12 -2 9 4 -6 10 -25 14 -25 6z"/>
<path d="M6222 5225 c0 -16 2 -22 5 -12 2 9 2 23 0 30 -3 6 -5 -1 -5 -18z"/>
<path d="M6283 5210 c0 -25 2 -35 4 -22 2 12 2 32 0 45 -2 12 -4 2 -4 -23z"/>
<path d="M6450 5246 c0 -2 7 -7 16 -10 8 -3 12 -2 9 4 -6 10 -25 14 -25 6z"/>
<path d="M6763 5210 c0 -25 2 -35 4 -22 2 12 2 32 0 45 -2 12 -4 2 -4 -23z"/>
<path d="M6121 5215 c-1 -25 17 -45 39 -44 10 0 9 3 -5 8 -11 4 -23 19 -26 32
-6 21 -7 21 -8 4z"/>
<path d="M6411 5215 c-1 -25 17 -45 39 -44 10 0 9 3 -5 8 -11 4 -23 19 -26 32
-6 21 -7 21 -8 4z"/>
<path d="M6660 5204 c0 -17 27 -37 42 -31 8 4 7 6 -4 6 -9 1 -22 9 -27 19 -6
9 -11 12 -11 6z"/>
<path d="M6238 5178 c5 -5 16 -8 23 -6 8 3 3 7 -10 11 -17 4 -21 3 -13 -5z"/>
<path d="M5638 5173 c6 -2 18 -2 25 0 6 3 1 5 -13 5 -14 0 -19 -2 -12 -5z"/>
<path d="M5878 5173 c7 -3 16 -2 19 1 4 3 -2 6 -13 5 -11 0 -14 -3 -6 -6z"/>
<path d="M5680 4566 c0 -2 7 -7 16 -10 8 -3 12 -2 9 4 -6 10 -25 14 -25 6z"/>
<path d="M5988 4557 c-2 -7 -1 -25 3 -42 7 -30 7 -30 8 -3 0 14 5 28 10 30 5
2 3 8 -4 15 -10 9 -14 9 -17 0z"/>
<path d="M5743 4510 c0 -25 2 -35 4 -22 2 12 2 32 0 45 -2 12 -4 2 -4 -23z"/>
<path d="M5895 4540 c-3 -6 1 -7 9 -4 18 7 21 14 7 14 -6 0 -13 -4 -16 -10z"/>
<path d="M6080 4546 c0 -2 7 -7 16 -10 8 -3 12 -2 9 4 -6 10 -25 14 -25 6z"/>
<path d="M6183 4490 c0 -36 2 -50 4 -32 2 17 2 47 0 65 -2 17 -4 3 -4 -33z"/>
<path d="M6220 4546 c0 -2 7 -7 16 -10 8 -3 12 -2 9 4 -6 10 -25 14 -25 6z"/>
<path d="M6285 4540 c-3 -6 1 -7 9 -4 18 7 21 14 7 14 -6 0 -13 -4 -16 -10z"/>
<path d="M6384 4539 c-3 -6 -2 -15 3 -20 5 -5 9 -1 9 11 0 23 -2 24 -12 9z"/>
<path d="M6580 4541 c0 -6 4 -13 10 -16 6 -3 7 1 4 9 -7 18 -14 21 -14 7z"/>
<path d="M6665 4540 c-3 -6 1 -7 9 -4 18 7 21 14 7 14 -6 0 -13 -4 -16 -10z"/>
<path d="M5622 4520 c0 -14 2 -19 5 -12 2 6 2 18 0 25 -3 6 -5 1 -5 -13z"/>
<path d="M6041 4515 c-1 -25 17 -45 39 -44 10 0 9 3 -5 8 -11 4 -23 19 -26 32
-6 21 -7 21 -8 4z"/>
<path d="M6721 4512 c-1 -13 -10 -26 -23 -32 -16 -6 -18 -9 -7 -9 22 -1 42 24
36 46 -4 14 -5 13 -6 -5z"/>
<path d="M5790 4509 c0 -5 5 -7 10 -4 6 3 10 8 10 11 0 2 -4 4 -10 4 -5 0 -10
-5 -10 -11z"/>
<path d="M6810 4504 c0 -17 27 -37 42 -31 8 4 7 6 -4 6 -9 1 -22 9 -27 19 -6
9 -11 12 -11 6z"/>
<path d="M5695 4491 c-6 -5 -19 -11 -30 -14 -19 -4 -19 -5 1 -6 12 0 27 6 34
14 14 16 10 20 -5 6z"/>
<path d="M5835 4480 c-16 -7 -17 -9 -3 -9 9 -1 20 4 23 9 7 11 7 11 -20 0z"/>
<path d="M6388 4478 c5 -5 16 -8 23 -6 8 3 3 7 -10 11 -17 4 -21 3 -13 -5z"/>
<path d="M6468 4478 c5 -5 16 -8 23 -6 8 3 3 7 -10 11 -17 4 -21 3 -13 -5z"/>
<path d="M6968 3858 c-2 -13 -1 -39 3 -58 5 -30 7 -26 8 23 1 58 -4 74 -11 35z"/>
<path d="M5680 3866 c0 -2 7 -7 16 -10 8 -3 12 -2 9 4 -6 10 -25 14 -25 6z"/>
<path d="M5745 3840 c-3 -6 1 -7 9 -4 18 7 21 14 7 14 -6 0 -13 -4 -16 -10z"/>
<path d="M5938 3843 c7 -3 16 -2 19 1 4 3 -2 6 -13 5 -11 0 -14 -3 -6 -6z"/>
<path d="M5983 3810 c0 -25 2 -35 4 -22 2 12 2 32 0 45 -2 12 -4 2 -4 -23z"/>
<path d="M6023 3810 c0 -25 2 -35 4 -22 2 12 2 32 0 45 -2 12 -4 2 -4 -23z"/>
<path d="M6122 3836 c7 -8 15 -12 17 -11 5 6 -10 25 -20 25 -5 0 -4 -6 3 -14z"/>
<path d="M6177 3843 c6 -4 13 -24 16 -43 4 -34 4 -33 3 4 -1 26 -6 41 -16 43
-10 3 -11 2 -3 -4z"/>
<path d="M6273 3790 c0 -36 2 -50 4 -32 2 17 2 47 0 65 -2 17 -4 3 -4 -33z"/>
<path d="M6310 3846 c0 -2 7 -7 16 -10 8 -3 12 -2 9 4 -6 10 -25 14 -25 6z"/>
<path d="M6375 3840 c-3 -6 1 -7 9 -4 18 7 21 14 7 14 -6 0 -13 -4 -16 -10z"/>
<path d="M6474 3839 c-3 -6 -2 -15 3 -20 5 -5 9 -1 9 11 0 23 -2 24 -12 9z"/>
<path d="M6790 3846 c0 -2 7 -7 16 -10 8 -3 12 -2 9 4 -6 10 -25 14 -25 6z"/>
<path d="M5622 3820 c0 -14 2 -19 5 -12 2 6 2 18 0 25 -3 6 -5 1 -5 -13z"/>
<path d="M5801 3812 c-1 -13 -10 -26 -23 -32 -16 -6 -18 -9 -7 -9 22 -1 42 24
36 46 -4 14 -5 13 -6 -5z"/>
<path d="M6901 3815 c-1 -25 17 -45 39 -44 10 0 9 3 -5 8 -11 4 -23 19 -26 32
-6 21 -7 21 -8 4z"/>
<path d="M5695 3791 c-6 -5 -19 -11 -30 -14 -19 -4 -19 -5 1 -6 12 0 27 6 34
14 14 16 10 20 -5 6z"/>
<path d="M6478 3778 c5 -5 16 -8 23 -6 8 3 3 7 -10 11 -17 4 -21 3 -13 -5z"/>
<path d="M6558 3778 c5 -5 16 -8 23 -6 8 3 3 7 -10 11 -17 4 -21 3 -13 -5z"/>
<path d="M6778 3773 c7 -3 16 -2 19 1 4 3 -2 6 -13 5 -11 0 -14 -3 -6 -6z"/>
<path d="M5475 3355 c-25 -24 -25 -24 -25 -235 0 -211 0 -211 25 -235 l24 -25
1751 0 1751 0 24 25 c25 24 25 24 25 235 0 211 0 211 -25 235 l-24 25 -1751 0
-1751 0 -24 -25z m1576 -178 c-1 -4 -1 -29 -1 -57 0 -27 -4 -50 -10 -50 -6 0
-10 27 -10 61 0 39 4 59 11 57 6 -2 10 -7 10 -11z m-266 -54 c1 -55 -8 -65
-31 -35 -13 16 -13 16 -14 0 0 -10 -7 -18 -15 -18 -12 0 -15 13 -15 56 l0 55
38 -3 37 -3 0 -52z m417 37 c19 -17 19 -20 5 -20 -23 0 -22 -39 1 -56 15 -12
15 -13 -9 -14 -24 0 -27 4 -31 43 -4 40 -1 67 8 67 3 0 14 -9 26 -20z m293
-17 l25 -38 0 38 c0 20 5 37 10 37 6 0 10 -25 10 -55 0 -65 -17 -73 -49 -22
l-21 32 0 -32 c0 -18 -4 -33 -10 -33 -5 0 -10 25 -10 55 0 30 4 55 10 55 5 0
21 -17 35 -37z m-607 5 c19 -19 15 -66 -7 -78 -11 -5 -24 -10 -30 -10 -18 0
-41 31 -41 55 0 37 52 59 78 33z m122 -42 c0 -34 -5 -58 -14 -65 -18 -15 -68
-11 -74 6 -2 9 5 11 27 7 17 -4 31 -3 31 2 0 5 -12 10 -26 11 -28 1 -44 17
-44 45 0 27 29 48 66 48 l34 0 0 -54z m129 40 c9 -10 9 -16 1 -21 -8 -5 -7
-11 2 -22 10 -12 9 -18 -7 -29 -24 -18 -27 -17 -51 2 -14 11 -16 17 -6 21 10
4 10 8 1 19 -9 11 -9 18 1 29 16 19 44 19 59 1z m159 2 c20 -20 15 -66 -9 -78
-26 -14 -69 11 -69 40 0 39 51 65 78 38z m82 3 c0 -6 -4 -13 -10 -16 -5 -3
-10 -19 -10 -36 0 -19 -5 -29 -15 -29 -11 0 -15 12 -15 45 0 41 2 45 25 45 14
0 25 -4 25 -9z m251 -1 c30 -16 26 -68 -7 -80 -36 -14 -64 3 -64 38 0 46 30
64 71 42z m62 -12 l4 -23 8 23 c10 30 31 28 43 -5 9 -25 11 -25 11 -6 1 21 18
40 27 30 3 -3 0 -23 -7 -46 -13 -45 -37 -54 -47 -19 l-5 22 -8 -22 c-12 -31
-36 -27 -43 6 -4 15 -9 35 -12 45 -3 11 0 17 10 17 8 0 17 -10 19 -22z"/>
<path d="M6740 3145 c0 -9 5 -15 11 -13 6 2 11 8 11 13 0 5 -5 11 -11 13 -6 2
-11 -4 -11 -13z"/>
<path d="M6845 3130 c-3 -5 1 -10 10 -10 9 0 13 5 10 10 -3 6 -8 10 -10 10 -2
0 -7 -4 -10 -10z"/>
<path d="M6845 3090 c4 -6 11 -8 16 -5 14 9 11 15 -7 15 -8 0 -12 -5 -9 -10z"/>
<path d="M6947 3134 c-16 -16 -7 -44 14 -44 15 0 20 5 17 22 -3 22 -19 33 -31
22z"/>
<path d="M7100 3130 c0 -5 5 -10 11 -10 5 0 7 5 4 10 -3 6 -8 10 -11 10 -2 0
-4 -4 -4 -10z"/>
<path d="M7255 3130 c-3 -5 3 -10 15 -10 12 0 18 5 15 10 -3 6 -10 10 -15 10
-5 0 -12 -4 -15 -10z"/>
<path d="M7258 3093 c7 -3 16 -2 19 1 4 3 -2 6 -13 5 -11 0 -14 -3 -6 -6z"/>
<path d="M7591 3126 c-14 -17 -7 -36 14 -36 22 0 29 20 13 36 -13 13 -16 13
-27 0z"/>
<path d="M6106 2583 c-9 -25 -14 -49 -11 -51 3 -3 5 0 5 6 0 16 43 15 58 0 8
-8 7 5 -4 35 -9 26 -20 49 -24 52 -4 3 -15 -16 -24 -42z m34 -3 c0 -11 -7 -20
-15 -20 -17 0 -18 2 -9 24 9 23 24 20 24 -4z"/>
<path d="M6193 2580 c0 -30 2 -43 4 -27 2 15 2 39 0 55 -2 15 -4 2 -4 -28z"/>
<path d="M6520 2614 c0 -10 -6 -13 -17 -10 -28 9 -45 -8 -41 -40 3 -25 7 -29
36 -30 32 -1 32 -1 32 48 0 26 -2 48 -5 48 -3 0 -5 -7 -5 -16z m-4 -59 c-3 -9
-14 -15 -23 -13 -22 4 -30 38 -11 49 18 11 43 -15 34 -36z"/>
<path d="M6672 2580 c0 -30 3 -44 5 -30 11 57 52 61 54 6 2 -31 2 -31 6 -3 5
32 -13 61 -33 53 -8 -3 -18 3 -23 12 -8 13 -10 3 -9 -38z"/>
<path d="M7877 2624 c-13 -13 -7 -27 6 -15 15 12 27 5 27 -16 0 -7 -7 -13 -15
-13 -8 0 -15 -5 -15 -10 0 -7 7 -7 21 0 13 7 19 19 17 33 -3 22 -28 34 -41 21z"/>
<path d="M8215 2620 c3 -5 8 -10 11 -10 2 0 4 5 4 10 0 6 -5 10 -11 10 -5 0
-7 -4 -4 -10z"/>
<path d="M7818 2614 c-10 -9 8 -78 20 -82 11 -3 11 -1 0 17 -10 16 -10 25 -1
40 10 15 9 20 -1 24 -8 3 -16 4 -18 1z"/>
<path d="M7986 2608 c-14 -31 -3 -73 22 -76 12 -2 22 1 22 7 0 6 -6 11 -14 11
-10 0 -16 13 -18 38 -3 27 -6 32 -12 20z"/>
<path d="M6232 2566 c1 -37 2 -38 5 -8 2 17 8 32 14 32 5 0 9 4 9 8 0 5 -7 9
-15 9 -11 0 -15 -11 -13 -41z"/>
<path d="M6286 2594 c-19 -18 -19 -20 -6 -45 11 -20 45 -26 55 -9 4 7 -2 9
-19 4 -16 -4 -26 -2 -26 5 0 6 11 11 25 11 29 0 36 34 9 44 -21 8 -20 8 -38
-10z m42 -12 c2 -7 -6 -12 -17 -12 -21 0 -27 11 -14 24 9 9 26 2 31 -12z"/>
<path d="M6377 2598 c-20 -11 -22 -41 -4 -56 6 -5 24 -10 40 -10 24 0 27 4 27
37 0 31 -3 36 -23 37 -13 1 -31 -3 -40 -8z m41 -22 c6 -29 -15 -43 -35 -24
-14 14 -14 20 -3 33 16 19 34 15 38 -9z"/>
<path d="M6550 2605 c0 -3 7 -21 15 -41 8 -19 12 -42 9 -52 -2 -9 7 6 20 33
29 58 34 87 7 36 l-18 -34 -11 32 c-10 27 -22 42 -22 26z"/>
<path d="M6771 2597 c-12 -12 -15 -56 -3 -59 4 0 19 -2 35 -3 25 -2 27 1 27
34 0 31 -3 36 -24 37 -13 1 -29 -3 -35 -9z m47 -31 c-2 -13 -10 -21 -23 -21
-23 0 -33 34 -14 45 20 13 40 -1 37 -24z"/>
<path d="M6850 2606 c0 -10 31 -76 36 -76 7 0 36 71 31 77 -3 2 -10 -11 -17
-29 l-12 -33 -14 33 c-12 27 -24 42 -24 28z"/>
<path d="M6946 2594 c-19 -18 -19 -20 -6 -45 11 -20 45 -26 55 -9 4 7 -2 9
-19 4 -16 -4 -26 -2 -26 5 0 6 11 11 25 11 29 0 36 34 9 44 -21 8 -20 8 -38
-10z m42 -12 c2 -7 -6 -12 -17 -12 -21 0 -27 11 -14 24 9 9 26 2 31 -12z"/>
<path d="M7070 2600 c-6 -4 -10 -20 -8 -36 3 -25 7 -29 36 -30 30 -1 32 1 32
35 0 31 -3 36 -24 37 -13 1 -29 -2 -36 -6z m46 -45 c-3 -9 -14 -15 -23 -13
-22 4 -30 38 -11 49 18 11 43 -15 34 -36z"/>
<path d="M7161 2566 l2 -41 6 35 c4 22 12 35 21 35 9 0 17 -13 21 -35 l6 -35
2 38 c0 20 -2 38 -6 38 -51 9 -53 7 -52 -35z"/>
<path d="M7291 2597 c-12 -12 -15 -56 -3 -59 4 0 19 -2 35 -3 25 -2 27 1 27
34 0 31 -3 36 -24 37 -13 1 -29 -3 -35 -9z m47 -31 c-2 -13 -10 -21 -23 -21
-23 0 -33 34 -14 45 20 13 40 -1 37 -24z"/>
<path d="M7386 2594 c-19 -18 -19 -20 -6 -45 11 -20 45 -26 55 -9 4 7 -2 9
-18 5 -30 -8 -42 15 -22 41 11 15 15 16 29 5 9 -7 16 -9 16 -3 0 5 -7 13 -16
16 -21 8 -20 8 -38 -10z"/>
<path d="M7472 2598 c-20 -20 -15 -56 9 -63 12 -4 25 -3 30 2 6 6 1 9 -13 9
-14 -1 -24 6 -26 18 -6 28 14 42 34 25 15 -12 17 -12 12 1 -6 20 -30 24 -46 8z"/>
<path d="M7556 2597 c-33 -24 -1 -79 38 -64 21 8 22 63 0 71 -20 8 -17 8 -38
-7z m39 -28 c0 -28 -29 -38 -39 -13 -7 19 11 47 28 41 6 -2 11 -14 11 -28z"/>
<path d="M7643 2575 c2 -36 5 -40 30 -41 25 -1 27 1 26 40 l-2 41 -6 -35 c-4
-22 -12 -35 -21 -35 -9 0 -18 13 -22 35 l-6 35 1 -40z"/>
<path d="M7730 2571 c0 -23 2 -41 4 -41 8 0 12 71 4 76 -4 3 -8 -13 -8 -35z"/>
<path d="M7767 2599 c6 -8 13 -27 16 -44 4 -23 4 -20 3 9 -1 25 -6 41 -16 44
-12 4 -13 2 -3 -9z"/>
<path d="M8067 2588 c-22 -12 -22 -35 1 -46 25 -13 42 -4 42 23 0 27 -19 37
-43 23z m29 -33 c-5 -14 -9 -15 -21 -5 -12 10 -13 16 -4 27 15 18 34 1 25 -22z"/>
<path d="M8140 2585 c-15 -18 2 -45 29 -45 13 0 14 -2 1 -9 -8 -6 -19 -7 -25
-4 -6 4 -6 2 1 -6 6 -6 18 -9 27 -5 23 8 23 69 1 78 -21 8 -20 8 -34 -9z m35
-25 c-5 -8 -11 -8 -17 -2 -6 6 -7 16 -3 22 5 8 11 8 17 2 6 -6 7 -16 3 -22z"/>
<path d="M8223 2565 c0 -22 2 -30 4 -17 2 12 2 30 0 40 -3 9 -5 -1 -4 -23z"/>
<path d="M8262 2588 c-14 -14 -16 -44 -3 -53 5 -3 11 7 13 22 4 37 21 36 29
-2 l7 -30 1 31 c1 21 -5 34 -15 38 -20 8 -18 8 -32 -6z"/>
<path d="M8372 2588 c-14 -14 -16 -44 -3 -53 5 -3 11 7 13 22 4 37 21 36 29
-2 l7 -30 1 31 c1 21 -5 34 -15 38 -20 8 -18 8 -32 -6z"/>
<path d="M8457 2588 c-22 -12 -22 -35 1 -46 25 -13 42 -4 42 23 0 27 -19 37
-43 23z m29 -33 c-5 -14 -9 -15 -21 -5 -12 10 -13 16 -4 27 15 18 34 1 25 -22z"/>
<path d="M8532 2575 c-2 -27 13 -51 22 -36 4 6 3 11 -3 11 -5 0 -12 10 -14 23
-4 19 -4 19 -5 2z"/>
<path d="M8560 2580 c0 -5 5 -10 10 -10 6 0 10 5 10 10 0 6 -4 10 -10 10 -5 0
-10 -4 -10 -10z"/>
<path d="M8600 2569 c0 -12 -4 -18 -11 -13 -7 4 -10 2 -8 -5 3 -7 9 -12 14
-12 13 2 26 51 14 51 -5 0 -9 -9 -9 -21z"/>
<path d="M6197 2123 c579 -2 1527 -2 2105 0 579 1 106 2 -1052 2 -1158 0
-1631 -1 -1053 -2z"/>
</g>
</svg>
