<?xml version="1.0" standalone="no"?>
<!DOCTYPE svg PUBLIC "-//W3C//DTD SVG 20010904//EN"
 "http://www.w3.org/TR/2001/REC-SVG-20010904/DTD/svg10.dtd">
<svg version="1.0" xmlns="http://www.w3.org/2000/svg"
 width="402.000000pt" height="485.000000pt" viewBox="0 0 402.000000 485.000000"
 preserveAspectRatio="xMidYMid meet">

<g transform="translate(0.000000,485.000000) scale(0.100000,-0.100000)"
fill="#000000" stroke="none">
<path d="M0 2425 l0 -2425 2010 0 2010 0 0 2425 0 2425 -2010 0 -2010 0 0
-2425z m880 2068 c0 -35 -3 -44 -10 -33 -9 13 -11 13 -20 0 -6 -10 -10 -11
-10 -2 0 6 -7 12 -15 12 -8 0 -15 -6 -15 -12 0 -9 -3 -10 -8 -2 -4 6 -14 14
-22 17 -12 4 -11 6 3 6 21 1 24 41 2 41 -8 0 -15 5 -15 10 0 6 25 10 55 10
l55 0 0 -47z m187 -40 c-2 -16 -4 -5 -4 22 0 28 2 40 4 28 2 -13 2 -35 0 -50z
m-94 30 c-7 -2 -13 -16 -13 -29 0 -13 -4 -24 -10 -24 -5 0 -10 14 -10 30 0 25
4 30 23 29 12 0 16 -3 10 -6z m67 -8 c10 -12 10 -18 0 -30 -7 -8 -18 -15 -25
-15 -7 0 -18 7 -25 15 -10 12 -10 18 0 30 7 8 18 15 25 15 7 0 18 -7 25 -15z
m145 5 c-18 -6 -18 -7 -1 -17 23 -13 12 -33 -17 -32 -20 0 -20 1 -4 8 30 11
-2 29 -38 21 l-30 -7 25 -11 c25 -11 25 -11 2 -11 -24 -1 -38 20 -29 43 4 9
22 14 59 14 32 -1 45 -3 33 -8z m-595 -190 c0 -23 -4 -30 -20 -30 -16 0 -20 7
-20 30 0 23 4 30 20 30 16 0 20 -7 20 -30z m70 -17 c0 -35 -3 -44 -10 -33 -7
11 -12 12 -17 4 -6 -9 -12 -8 -21 2 -7 8 -8 14 -2 14 5 0 10 9 10 20 0 11 -4
20 -10 20 -5 0 -10 5 -10 10 0 6 14 10 30 10 29 0 30 -1 30 -47z m157 -25 c-2
-13 -4 -5 -4 17 -1 22 1 32 4 23 2 -10 2 -28 0 -40z m-83 24 c-7 -4 -14 -16
-17 -27 -4 -15 -5 -14 -6 8 -1 20 4 27 17 27 11 0 13 -3 6 -8z m59 -4 c7 -21
-4 -38 -23 -38 -10 0 -20 6 -23 13 -7 20 4 37 23 37 10 0 20 -6 23 -12z m85
-5 c2 -7 -5 -13 -15 -14 -16 0 -16 -1 2 -9 19 -8 19 -9 -2 -9 -22 -1 -33 15
-25 37 6 16 34 12 40 -5z m-302 -24 c10 -17 -13 -36 -27 -22 -12 12 -4 33 11
33 5 0 12 -5 16 -11z m4 -129 c0 -20 -5 -30 -15 -30 -10 0 -15 10 -15 30 0 20
5 30 15 30 10 0 15 -10 15 -30z m65 20 c-28 -12 -45 -12 -45 0 0 6 15 10 33 9
27 0 29 -2 12 -9z m18 -24 c3 -7 1 -18 -5 -24 -8 -8 -8 -15 1 -25 9 -12 8 -16
-3 -20 -10 -4 -16 2 -18 16 -2 16 -9 21 -23 19 -12 -2 -16 0 -9 5 6 4 13 16
17 26 8 20 33 23 40 3z m117 -21 c0 -28 -4 -35 -19 -35 -20 0 -31 17 -24 38 3
6 11 12 19 12 8 0 14 5 14 10 0 6 2 10 5 10 3 0 5 -16 5 -35z m-63 -22 c-3
-10 -5 -4 -5 12 0 17 2 24 5 18 2 -7 2 -21 0 -30z m-141 -4 c10 -17 -13 -36
-27 -22 -12 12 -4 33 11 33 5 0 12 -5 16 -11z m453 -611 c18 -3 18 -5 -3 -46
l-22 -43 -22 46 c-21 44 -21 45 -2 45 19 0 20 7 20 94 0 74 -3 95 -15 100 -8
3 -15 12 -15 21 0 9 7 18 15 21 12 5 15 34 17 163 2 88 4 35 5 -121 3 -262 4
-277 22 -280z m-202 210 c-2 -13 -4 -5 -4 17 -1 22 1 32 4 23 2 -10 2 -28 0
-40z m-85 7 c-2 -14 -6 -25 -8 -25 -2 0 -4 11 -4 25 0 14 4 25 9 25 4 0 6 -11
3 -25z m55 9 c8 -21 -13 -42 -28 -27 -13 13 -5 43 11 43 6 0 13 -7 17 -16z
m91 -2 c2 -7 -5 -12 -15 -12 -15 0 -16 -2 -3 -10 9 -6 10 -10 3 -10 -16 0 -26
18 -19 36 7 17 27 15 34 -4z m59 -19 c-3 -10 -5 -4 -5 12 0 17 2 24 5 18 2 -7
2 -21 0 -30z m-77 -420 c0 -35 -3 -44 -10 -33 -9 13 -11 13 -20 0 -6 -10 -10
-11 -10 -2 0 6 -7 12 -15 12 -8 0 -15 -6 -15 -12 0 -9 -3 -10 -8 -2 -4 6 -14
14 -22 17 -12 4 -11 6 3 6 21 1 24 41 2 41 -8 0 -15 5 -15 10 0 6 25 10 55 10
l55 0 0 -47z m95 -44 c6 0 13 10 17 23 5 20 6 18 7 -9 1 -29 -2 -33 -24 -33
-22 0 -25 4 -24 33 1 27 2 29 7 9 4 -13 12 -23 17 -23z m70 32 c-18 -7 -18 -8
-1 -18 23 -13 12 -33 -17 -32 -20 0 -20 1 -4 8 17 6 17 8 3 20 -20 17 -12 31
17 30 21 0 21 -1 2 -8z m82 -8 c3 -6 -8 -13 -24 -15 l-28 -4 25 -11 c25 -12
25 -12 2 -12 -25 -1 -38 20 -28 45 7 18 47 16 53 -3z m88 8 c-18 -7 -18 -8 -1
-18 23 -13 12 -33 -17 -32 -18 1 -19 2 -4 6 18 5 18 6 1 24 -23 26 -34 24 -34
-6 0 -14 -4 -25 -10 -25 -5 0 -10 13 -10 29 0 28 2 29 48 29 31 0 40 -3 27 -7z
m1775 -68 c0 -35 -3 -44 -10 -33 -9 13 -11 13 -20 0 -6 -10 -10 -11 -10 -2 0
6 -7 12 -15 12 -8 0 -15 -6 -15 -12 0 -9 -3 -10 -8 -2 -4 6 -14 14 -22 17 -12
4 -11 6 3 6 21 1 24 41 2 41 -8 0 -15 5 -15 10 0 6 25 10 55 10 l55 0 0 -47z
m327 -40 c-2 -16 -4 -5 -4 22 0 28 2 40 4 28 2 -13 2 -35 0 -50z m-118 29
c-13 -5 -11 -40 4 -45 7 -3 5 -6 -5 -6 -11 -1 -20 9 -24 24 -3 14 -12 25 -20
25 -8 0 -14 -10 -14 -25 0 -14 -4 -25 -10 -25 -5 0 -10 14 -10 30 0 25 4 30
24 30 14 0 28 4 31 10 4 6 11 5 20 -3 7 -6 9 -13 4 -15z m-99 -23 c0 -26 -3
-30 -22 -27 -30 4 -34 25 -6 34 22 7 22 7 3 15 -19 7 -19 8 3 8 18 1 22 -4 22
-30z m127 -16 c-3 -10 -5 -2 -5 17 0 19 2 27 5 18 2 -10 2 -26 0 -35z m47 32
c-19 -15 -19 -15 0 -30 18 -13 18 -15 3 -15 -20 0 -32 23 -23 45 3 8 13 15 23
15 15 0 15 -2 -3 -15z m161 5 c-18 -6 -18 -7 -1 -17 23 -13 12 -33 -17 -32
-20 0 -20 1 -4 8 30 11 -2 29 -38 21 l-30 -7 25 -11 c25 -11 25 -11 2 -11 -24
-1 -38 20 -29 43 4 9 22 14 59 14 32 -1 45 -3 33 -8z m-2965 -110 c0 -20 -5
-30 -15 -30 -10 0 -15 10 -15 30 0 20 5 30 15 30 10 0 15 -10 15 -30z m80 -17
c0 -35 -3 -44 -10 -33 -7 11 -12 12 -17 4 -6 -9 -12 -8 -21 2 -7 8 -8 14 -2
14 5 0 10 9 10 20 0 11 -4 20 -10 20 -5 0 -10 5 -10 10 0 6 14 10 30 10 29 0
30 -1 30 -47z m267 -25 c-2 -13 -4 -5 -4 17 -1 22 1 32 4 23 2 -10 2 -28 0
-40z m-179 15 c2 -7 -5 -13 -15 -14 -16 0 -16 -1 2 -9 19 -8 19 -9 -2 -9 -22
-1 -33 15 -25 37 6 16 34 12 40 -5z m78 3 c3 -8 12 -12 21 -9 12 5 12 7 1 15
-9 7 -8 8 7 6 12 -2 21 -12 23 -25 3 -20 -1 -22 -32 -21 -29 1 -36 5 -37 22
-2 20 -2 19 -6 -1 -2 -13 -9 -23 -14 -23 -5 0 -9 10 -10 23 -1 21 -1 21 -9 -3
l-8 -25 -1 28 c-1 24 3 27 29 27 17 0 33 -6 36 -14z m71 -23 c-3 -10 -5 -4 -5
12 0 17 2 24 5 18 2 -7 2 -21 0 -30z m-321 -4 c10 -17 -13 -36 -27 -22 -12 12
-4 33 11 33 5 0 12 -5 16 -11z m2294 -29 c0 -23 -4 -30 -20 -30 -16 0 -20 7
-20 30 0 23 4 30 20 30 16 0 20 -7 20 -30z m70 -17 c0 -35 -3 -44 -10 -33 -7
11 -12 12 -17 4 -6 -9 -12 -8 -21 2 -7 8 -8 14 -2 14 5 0 10 9 10 20 0 11 -4
20 -10 20 -5 0 -10 5 -10 10 0 6 14 10 30 10 29 0 30 -1 30 -47z m167 -25 c-2
-13 -4 -5 -4 17 -1 22 1 32 4 23 2 -10 2 -28 0 -40z m-93 9 c2 -35 -18 -29
-22 7 -2 19 1 27 9 24 7 -2 13 -16 13 -31z m70 0 c2 -35 -18 -29 -22 7 -2 19
1 27 9 24 7 -2 13 -16 13 -31z m-47 -14 c-3 -10 -5 -4 -5 12 0 17 2 24 5 18 2
-7 2 -21 0 -30z m131 20 c2 -7 -5 -13 -15 -14 -16 0 -16 -1 2 -9 19 -8 19 -9
-2 -9 -22 -1 -33 15 -25 37 6 16 34 12 40 -5z m-312 -24 c10 -17 -13 -36 -27
-22 -12 12 -4 33 11 33 5 0 12 -5 16 -11z m-2276 -39 c0 -20 -5 -30 -15 -30
-10 0 -15 10 -15 30 0 20 5 30 15 30 10 0 15 -10 15 -30z m80 -17 c0 -35 -3
-44 -10 -33 -7 11 -12 12 -17 4 -6 -9 -12 -8 -21 2 -7 8 -8 14 -2 14 5 0 10 9
10 20 0 11 -4 20 -10 20 -5 0 -10 5 -10 10 0 6 14 10 30 10 29 0 30 -1 30 -47z
m450 -8 c0 -28 -4 -35 -19 -35 -20 0 -31 17 -24 38 3 6 11 12 19 12 8 0 14 5
14 10 0 6 2 10 5 10 3 0 5 -16 5 -35z m-357 3 c6 -19 -3 -38 -18 -38 -7 0 -16
-6 -18 -12 -3 -7 -6 4 -6 25 -1 30 3 37 18 37 11 0 21 -6 24 -12z m157 -1 c0
-8 3 -7 9 2 6 10 10 10 16 1 6 -9 10 -9 17 1 6 10 7 6 2 -11 -9 -34 -13 -37
-24 -20 -7 10 -10 11 -10 3 0 -7 -4 -13 -10 -13 -5 0 -10 9 -10 20 0 12 -7 20
-17 20 -14 0 -15 -2 -4 -9 25 -16 2 -28 -53 -30 -54 -1 -83 13 -51 25 11 4 13
9 6 13 -6 4 20 8 59 8 48 1 70 -2 70 -10z m103 1 c7 -21 -4 -38 -23 -38 -10 0
-20 6 -23 13 -7 20 4 37 23 37 10 0 20 -6 23 -12z m41 4 c-7 -4 -14 -16 -17
-27 -4 -15 -5 -14 -6 8 -1 20 4 27 17 27 11 0 13 -3 6 -8z m-478 -33 c10 -17
-13 -36 -27 -22 -12 12 -4 33 11 33 5 0 12 -5 16 -11z m2294 -29 c0 -23 -4
-30 -20 -30 -16 0 -20 7 -20 30 0 23 4 30 20 30 16 0 20 -7 20 -30z m70 -17
c0 -35 -3 -44 -10 -33 -7 11 -12 12 -17 4 -6 -9 -12 -8 -21 2 -7 8 -8 14 -2
14 5 0 10 9 10 20 0 11 -4 20 -10 20 -5 0 -10 5 -10 10 0 6 14 10 30 10 29 0
30 -1 30 -47z m274 -16 c2 -35 -18 -29 -22 7 -2 19 1 27 9 24 7 -2 13 -16 13
-31z m140 0 c2 -35 -18 -29 -22 7 -2 19 1 27 9 24 7 -2 13 -16 13 -31z m-291
16 c-7 -3 -13 -11 -13 -18 0 -7 6 -15 13 -18 6 -2 -7 -5 -30 -5 -44 -1 -66 14
-38 24 12 5 13 9 5 14 -6 4 8 7 32 7 23 0 37 -2 31 -4z m60 -5 c7 -21 -4 -38
-23 -38 -10 0 -20 6 -23 13 -7 20 4 37 23 37 10 0 20 -6 23 -12z m55 -16 c2
-12 -1 -22 -7 -22 -6 0 -11 10 -12 23 -1 21 -1 21 -9 -3 l-8 -25 -1 28 c-1 22
3 28 17 25 9 -2 18 -13 20 -26z m90 11 c2 -7 -5 -13 -15 -14 -16 0 -16 -1 2
-9 19 -8 19 -9 -2 -9 -22 -1 -33 15 -25 37 6 16 34 12 40 -5z m50 -11 c2 -12
-1 -22 -7 -22 -6 0 -11 10 -12 23 -1 21 -1 21 -9 -3 l-8 -25 -1 28 c-1 22 3
28 17 25 9 -2 18 -13 20 -26z m-462 -13 c10 -17 -13 -36 -27 -22 -12 12 -4 33
11 33 5 0 12 -5 16 -11z m-2266 -49 c0 -23 -4 -30 -20 -30 -16 0 -20 7 -20 30
0 23 4 30 20 30 16 0 20 -7 20 -30z m70 -17 c0 -35 -3 -44 -10 -33 -7 11 -12
12 -17 4 -6 -9 -12 -8 -21 2 -7 8 -8 14 -2 14 5 0 10 9 10 20 0 11 -4 20 -10
20 -5 0 -10 5 -10 10 0 6 14 10 30 10 29 0 30 -1 30 -47z m86 -7 c3 -8 12 -12
21 -9 12 5 12 7 1 15 -9 7 -8 8 7 6 12 -2 21 -12 23 -25 3 -20 -1 -22 -32 -21
-29 1 -36 5 -37 22 -1 18 -2 18 -9 -4 l-8 -25 -1 28 c-1 29 25 39 35 13z m130
3 c5 -8 9 -7 14 1 9 14 40 6 40 -10 0 -5 -8 -10 -17 -11 -15 0 -15 -2 2 -9 19
-8 19 -9 -2 -9 -13 -1 -23 5 -24 12 0 10 -2 10 -6 0 -8 -21 -23 -15 -24 10
l-2 22 -4 -22 c-2 -13 -9 -23 -14 -23 -5 0 -9 10 -10 23 -1 21 -1 21 -9 -3
l-8 -25 -1 28 c-1 23 3 27 28 27 17 0 33 -5 37 -11z m-300 -30 c10 -17 -13
-36 -27 -22 -12 12 -4 33 11 33 5 0 12 -5 16 -11z m2294 -29 c0 -23 -4 -30
-20 -30 -16 0 -20 7 -20 30 0 23 4 30 20 30 16 0 20 -7 20 -30z m70 -17 c0
-35 -3 -44 -10 -33 -7 11 -12 12 -17 4 -6 -9 -12 -8 -21 2 -7 8 -8 14 -2 14 5
0 10 9 10 20 0 11 -4 20 -10 20 -5 0 -10 5 -10 10 0 6 14 10 30 10 29 0 30 -1
30 -47z m166 7 c8 0 14 -5 14 -12 0 -9 3 -9 12 0 7 7 19 12 28 11 10 0 11 -2
3 -6 -7 -2 -13 -11 -13 -18 0 -7 6 -16 13 -18 8 -4 7 -6 -3 -6 -9 -1 -21 4
-28 11 -9 9 -12 9 -12 0 0 -7 -9 -12 -20 -12 -17 0 -20 6 -19 38 0 20 3 31 6
25 2 -7 11 -13 19 -13z m208 -23 c2 -35 -18 -29 -22 7 -2 19 1 27 9 24 7 -2
13 -16 13 -31z m140 0 c2 -35 -18 -29 -22 7 -2 19 1 27 9 24 7 -2 13 -16 13
-31z m-413 1 l2 -23 4 23 c6 30 23 28 23 -3 0 -18 -5 -25 -20 -25 -11 0 -20 5
-20 11 0 8 -4 8 -15 -1 -8 -6 -20 -10 -27 -7 -7 3 -4 6 7 7 19 1 19 1 2 11
-23 13 -13 29 19 29 18 0 24 -6 25 -22z m182 10 c7 -21 -4 -38 -23 -38 -10 0
-20 6 -23 13 -7 20 4 37 23 37 10 0 20 -6 23 -12z m55 -16 c2 -12 -1 -22 -7
-22 -6 0 -11 10 -12 23 -1 21 -1 21 -9 -3 l-8 -25 -1 28 c-1 22 3 28 17 25 9
-2 18 -13 20 -26z m90 11 c2 -7 -5 -13 -15 -14 -16 0 -16 -1 2 -9 19 -8 19 -9
-2 -9 -22 -1 -33 15 -25 37 6 16 34 12 40 -5z m50 -11 c2 -12 -1 -22 -7 -22
-6 0 -11 10 -12 23 -1 21 -1 21 -9 -3 l-8 -25 -1 28 c-1 22 3 28 17 25 9 -2
18 -13 20 -26z m-562 -13 c10 -17 -13 -36 -27 -22 -12 12 -4 33 11 33 5 0 12
-5 16 -11z m-2266 -39 c0 -23 -4 -30 -20 -30 -16 0 -20 7 -20 30 0 23 4 30 20
30 16 0 20 -7 20 -30z m55 20 c-28 -12 -45 -12 -45 0 0 6 15 10 33 9 27 0 29
-2 12 -9z m18 -24 c3 -7 1 -18 -5 -24 -8 -8 -8 -15 1 -25 9 -12 8 -16 -3 -20
-10 -4 -16 2 -18 16 -2 16 -9 21 -23 19 -12 -2 -16 0 -9 5 6 4 13 16 17 26 8
20 33 23 40 3z m154 -38 c-2 -13 -4 -5 -4 17 -1 22 1 32 4 23 2 -10 2 -28 0
-40z m-83 24 c-7 -4 -14 -16 -17 -27 -4 -15 -5 -14 -6 8 -1 20 4 27 17 27 11
0 13 -3 6 -8z m59 -4 c7 -21 -4 -38 -23 -38 -10 0 -20 6 -23 13 -7 20 4 37 23
37 10 0 20 -6 23 -12z m85 -5 c2 -7 -5 -13 -15 -14 -16 0 -16 -1 2 -9 19 -8
19 -9 -2 -9 -22 -1 -33 15 -25 37 6 16 34 12 40 -5z m-302 -24 c10 -17 -13
-36 -27 -22 -12 12 -4 33 11 33 5 0 12 -5 16 -11z m2284 -39 c0 -20 -5 -30
-15 -30 -10 0 -15 10 -15 30 0 20 5 30 15 30 10 0 15 -10 15 -30z m65 20 c-28
-12 -45 -12 -45 0 0 6 15 10 33 9 27 0 29 -2 12 -9z m18 -24 c3 -7 1 -18 -5
-24 -8 -8 -8 -15 1 -25 9 -12 8 -16 -3 -20 -10 -4 -16 2 -18 16 -2 16 -9 21
-23 19 -12 -2 -16 0 -9 5 6 4 13 16 17 26 8 20 33 23 40 3z m117 -21 c0 -28
-4 -35 -19 -35 -20 0 -31 17 -24 38 3 6 11 12 19 12 8 0 14 5 14 10 0 6 2 10
5 10 3 0 5 -16 5 -35z m-63 -22 c-3 -10 -5 -4 -5 12 0 17 2 24 5 18 2 -7 2
-21 0 -30z m-141 -4 c10 -17 -13 -36 -27 -22 -12 12 -4 33 11 33 5 0 12 -5 16
-11z m-2276 -49 c0 -20 -5 -30 -15 -30 -10 0 -15 10 -15 30 0 20 5 30 15 30
10 0 15 -10 15 -30z m65 20 c-28 -12 -45 -12 -45 0 0 6 15 10 33 9 27 0 29 -2
12 -9z m18 -24 c3 -7 1 -18 -5 -24 -8 -8 -8 -15 1 -25 9 -12 8 -16 -3 -20 -10
-4 -16 2 -18 16 -2 16 -9 21 -23 19 -12 -2 -16 0 -9 5 6 4 13 16 17 26 8 20
33 23 40 3z m117 -21 c0 -28 -4 -35 -19 -35 -20 0 -31 17 -24 38 3 6 11 12 19
12 8 0 14 5 14 10 0 6 2 10 5 10 3 0 5 -16 5 -35z m-63 -22 c-3 -10 -5 -4 -5
12 0 17 2 24 5 18 2 -7 2 -21 0 -30z m-141 -4 c10 -17 -13 -36 -27 -22 -12 12
-4 33 11 33 5 0 12 -5 16 -11z m574 -359 c11 0 20 -2 20 -5 0 -10 -40 -85 -45
-85 -5 0 -45 75 -45 85 0 3 9 5 20 5 16 0 20 7 20 30 0 20 -5 30 -15 30 -26 0
-29 30 -6 51 18 17 21 33 23 107 1 48 4 19 5 -65 3 -145 5 -153 23 -153z
m-150 95 c0 -25 -4 -35 -15 -35 -24 0 -29 29 -9 50 25 25 24 25 24 -15z m-308
-10 c3 -13 1 -22 -3 -19 -9 5 -13 44 -5 44 2 0 6 -11 8 -25z m25 -12 c-3 -10
-5 -4 -5 12 0 17 2 24 5 18 2 -7 2 -21 0 -30z m38 28 c-3 -5 -1 -12 5 -16 12
-7 4 -25 -11 -25 -6 0 -8 4 -4 9 3 5 1 12 -5 16 -12 7 -4 25 11 25 6 0 8 -4 4
-9z m63 -9 c2 -7 -5 -12 -15 -12 -15 0 -16 -2 -3 -10 9 -6 10 -10 3 -10 -16 0
-26 18 -19 36 7 17 27 15 34 -4z m34 -7 c-2 -14 -6 -25 -8 -25 -2 0 -4 11 -4
25 0 14 4 25 9 25 4 0 6 -11 3 -25z m85 -12 c-3 -10 -5 -4 -5 12 0 17 2 24 5
18 2 -7 2 -21 0 -30z m120 0 c-3 -10 -5 -4 -5 12 0 17 2 24 5 18 2 -7 2 -21 0
-30z m-149 -30 c-10 -2 -26 -2 -35 0 -10 3 -2 5 17 5 19 0 27 -2 18 -5z m22
-260 c0 -35 -3 -44 -10 -33 -9 13 -11 13 -20 0 -6 -10 -10 -11 -10 -2 0 6 -7
12 -15 12 -8 0 -15 -6 -15 -12 0 -9 -3 -10 -8 -2 -4 6 -14 14 -22 17 -12 4
-11 6 3 6 21 1 24 41 2 41 -8 0 -15 5 -15 10 0 6 25 10 55 10 l55 0 0 -47z
m420 -18 c0 -41 -2 -45 -24 -45 -13 0 -27 7 -30 16 -7 19 10 44 30 44 8 0 14
7 14 15 0 8 2 15 5 15 3 0 5 -20 5 -45z m-317 8 c-7 -2 -13 -16 -13 -29 0 -13
-4 -24 -10 -24 -5 0 -10 14 -10 30 0 25 4 30 23 29 12 0 16 -3 10 -6z m74 -10
c3 -6 -8 -13 -24 -15 l-28 -4 25 -11 c25 -12 25 -12 2 -12 -25 -1 -38 20 -28
45 7 18 47 16 53 -3z m37 2 c-19 -15 -19 -15 0 -30 18 -13 18 -15 3 -15 -10 0
-20 7 -23 15 -9 22 3 45 23 45 15 0 15 -2 -3 -15z m86 0 c10 -12 10 -18 0 -30
-7 -8 -18 -15 -25 -15 -7 0 -18 7 -25 15 -10 12 -10 18 0 30 7 8 18 15 25 15
7 0 18 -7 25 -15z m53 8 c-7 -2 -13 -16 -13 -29 0 -13 -4 -24 -10 -24 -5 0
-10 14 -10 30 0 25 4 30 23 29 12 0 16 -3 10 -6z m112 -2 c-18 -7 -18 -8 -1
-18 23 -13 12 -33 -17 -32 -20 0 -20 1 -4 8 17 6 17 8 3 20 -20 17 -12 31 17
30 21 0 21 -1 2 -8z m-895 -191 c0 -23 -4 -30 -20 -30 -16 0 -20 7 -20 30 0
23 4 30 20 30 16 0 20 -7 20 -30z m70 -17 c0 -35 -3 -44 -10 -33 -7 11 -12 12
-17 4 -6 -9 -12 -8 -21 2 -7 8 -8 14 -2 14 5 0 10 9 10 20 0 11 -4 20 -10 20
-5 0 -10 5 -10 10 0 6 14 10 30 10 29 0 30 -1 30 -47z m90 -8 c0 -28 -4 -35
-19 -35 -20 0 -31 17 -24 38 3 6 11 12 19 12 8 0 14 5 14 10 0 6 2 10 5 10 3
0 5 -16 5 -35z m94 -8 c2 -35 -18 -29 -22 7 -2 19 1 27 9 24 7 -2 13 -16 13
-31z m-36 -5 c3 -16 -2 -22 -17 -22 -26 0 -37 18 -16 26 13 6 14 9 3 16 -9 7
-8 8 7 6 12 -2 21 -12 23 -26z m90 11 c2 -7 -5 -13 -15 -14 -16 0 -16 -1 2 -9
19 -8 19 -9 -2 -9 -22 -1 -33 15 -25 37 6 16 34 12 40 -5z m-322 -24 c10 -17
-13 -36 -27 -22 -12 12 -4 33 11 33 5 0 12 -5 16 -11z m14 -119 c0 -23 -4 -30
-20 -30 -16 0 -20 7 -20 30 0 23 4 30 20 30 16 0 20 -7 20 -30z m70 -17 c0
-35 -3 -44 -10 -33 -7 11 -12 12 -17 4 -6 -9 -12 -8 -21 2 -7 8 -8 14 -2 14 5
0 10 9 10 20 0 11 -4 20 -10 20 -5 0 -10 5 -10 10 0 6 14 10 30 10 29 0 30 -1
30 -47z m75 7 c7 0 16 -6 19 -12 5 -10 7 -10 12 0 3 6 14 12 24 12 10 0 21 -6
24 -12 5 -10 7 -10 12 0 3 6 12 12 19 12 7 0 16 6 18 13 3 6 6 -5 6 -25 1 -31
-3 -38 -18 -38 -11 0 -22 6 -25 13 -5 10 -7 10 -12 0 -3 -7 -14 -13 -24 -13
-10 0 -21 6 -24 13 -5 10 -7 10 -12 0 -3 -7 -14 -13 -25 -13 -15 0 -19 7 -18
38 0 20 3 31 6 25 2 -7 11 -13 18 -13z m269 -23 c2 -35 -18 -29 -22 7 -2 19 1
27 9 24 7 -2 13 -16 13 -31z m387 23 c5 0 10 -10 10 -22 l2 -23 4 23 c6 30 23
28 23 -3 0 -32 -32 -34 -49 -2 l-12 22 5 -23 c3 -15 0 -22 -7 -19 -7 2 -13 16
-15 32 -3 22 0 27 13 21 9 -3 21 -6 26 -6z m-491 -17 c0 -15 2 -14 15 3 19 25
19 11 0 -26 -9 -17 -21 -30 -28 -30 -9 0 -9 2 1 8 9 7 10 15 3 35 -7 17 -7 27
-1 27 6 0 10 -8 10 -17z m158 0 c2 -7 -5 -13 -15 -14 -16 0 -16 -1 2 -9 19 -8
19 -9 -2 -9 -22 -1 -33 15 -25 37 6 16 34 12 40 -5z m80 -10 c2 -13 -1 -23 -7
-23 -6 0 -12 10 -12 23 l-2 22 -4 -22 c-2 -13 -9 -23 -14 -23 -5 0 -9 10 -10
23 -1 21 -1 21 -9 -3 l-8 -25 -1 28 c-1 26 2 28 32 25 24 -2 33 -8 35 -25z
m55 15 c4 -10 8 -10 15 1 11 15 42 8 42 -9 0 -5 -8 -10 -17 -11 -15 0 -15 -2
2 -9 19 -8 19 -9 -2 -9 -12 -1 -24 5 -27 12 -5 10 -7 10 -12 0 -3 -7 -12 -13
-19 -13 -7 0 -16 -6 -18 -12 -3 -7 -6 4 -6 25 -1 30 3 37 18 37 11 0 22 -6 24
-12z m91 4 c-7 -4 -14 -16 -17 -27 -4 -15 -5 -14 -6 8 -1 20 4 27 17 27 11 0
13 -3 6 -8z m54 -20 c3 -16 -2 -22 -17 -22 -26 0 -37 18 -16 26 13 6 14 9 3
16 -9 7 -8 8 7 6 12 -2 21 -12 23 -26z m126 20 c-7 -4 -14 -16 -17 -27 -4 -15
-5 -14 -6 8 -1 20 4 27 17 27 11 0 13 -3 6 -8z m54 -9 c2 -7 -5 -13 -15 -14
-16 0 -16 -1 2 -9 19 -8 19 -9 -2 -9 -22 -1 -33 15 -25 37 6 16 34 12 40 -5z
m-942 -24 c10 -17 -13 -36 -27 -22 -12 12 -4 33 11 33 5 0 12 -5 16 -11z m387
-26 c-7 -2 -19 -2 -25 0 -7 3 -2 5 12 5 14 0 19 -2 13 -5z m-373 -103 c0 -23
-4 -30 -20 -30 -16 0 -20 7 -20 30 0 23 4 30 20 30 16 0 20 -7 20 -30z m70
-17 c0 -35 -3 -44 -10 -33 -7 11 -12 12 -17 4 -6 -9 -12 -8 -21 2 -7 8 -8 14
-2 14 5 0 10 9 10 20 0 11 -4 20 -10 20 -5 0 -10 5 -10 10 0 6 14 10 30 10 29
0 30 -1 30 -47z m75 7 c7 0 15 -6 18 -12 7 -21 -4 -38 -24 -38 -15 0 -19 7
-18 38 0 20 3 31 6 25 2 -7 11 -13 18 -13z m42 -32 c-2 -13 -4 -5 -4 17 -1 22
1 32 4 23 2 -10 2 -28 0 -40z m183 17 c0 -28 -4 -35 -19 -35 -11 0 -22 6 -25
13 -5 10 -7 10 -12 0 -3 -7 -14 -13 -24 -13 -10 0 -21 6 -24 13 -5 10 -7 10
-12 0 -14 -31 -58 -7 -46 25 2 6 12 12 22 12 10 0 21 -6 24 -12 5 -10 7 -10
12 0 3 6 14 12 24 12 10 0 21 -6 24 -12 5 -10 7 -10 12 0 3 6 12 12 20 12 8 0
14 5 14 10 0 6 2 10 5 10 3 0 5 -16 5 -35z m103 3 c6 -19 -3 -38 -18 -38 -7 0
-16 -6 -18 -12 -3 -7 -6 4 -6 25 -1 30 3 37 18 37 11 0 21 -6 24 -12z m41 4
c-7 -4 -14 -16 -17 -27 -4 -15 -5 -14 -6 8 -1 20 4 27 17 27 11 0 13 -3 6 -8z
m157 -15 c2 -22 2 -22 6 1 6 30 23 28 23 -3 0 -18 -5 -25 -20 -25 -11 0 -20 5
-20 11 0 8 -4 8 -12 2 -19 -15 -110 -16 -119 -2 -16 26 3 35 71 36 65 2 70 0
71 -20z m63 15 c-7 -4 -14 -16 -17 -27 -4 -15 -5 -14 -6 8 -1 20 4 27 17 27
11 0 13 -3 6 -8z m54 -9 c2 -7 -5 -13 -15 -14 -16 0 -16 -1 2 -9 19 -8 19 -9
-2 -9 -22 -1 -33 15 -25 37 6 16 34 12 40 -5z m-802 -24 c10 -17 -13 -36 -27
-22 -12 12 -4 33 11 33 5 0 12 -5 16 -11z m427 -26 c-7 -2 -19 -2 -25 0 -7 3
-2 5 12 5 14 0 19 -2 13 -5z m-413 -93 c0 -23 -4 -30 -20 -30 -16 0 -20 7 -20
30 0 23 4 30 20 30 16 0 20 -7 20 -30z m70 -17 c0 -35 -3 -44 -10 -33 -7 11
-12 12 -17 4 -6 -9 -12 -8 -21 2 -7 8 -8 14 -2 14 5 0 10 9 10 20 0 11 -4 20
-10 20 -5 0 -10 5 -10 10 0 6 14 10 30 10 29 0 30 -1 30 -47z m177 -25 c-2
-13 -4 -5 -4 17 -1 22 1 32 4 23 2 -10 2 -28 0 -40z m30 0 c-2 -13 -4 -5 -4
17 -1 22 1 32 4 23 2 -10 2 -28 0 -40z m88 32 c7 0 16 -6 18 -12 4 -10 8 -10
15 1 11 15 42 8 42 -9 0 -5 -8 -10 -17 -11 -15 0 -15 -2 2 -9 19 -8 19 -9 -2
-9 -12 -1 -24 5 -27 12 -5 10 -7 10 -12 0 -3 -7 -14 -13 -25 -13 -15 0 -19 7
-18 38 0 20 3 31 6 25 2 -7 11 -13 18 -13z m-235 -12 c0 -10 3 -9 9 1 6 10 10
10 16 1 6 -9 10 -9 17 1 6 10 7 6 2 -11 -9 -34 -13 -37 -24 -20 -7 10 -10 11
-10 3 0 -23 -18 -14 -22 12 -3 14 -1 25 3 25 5 0 9 -6 9 -12z m98 -5 c2 -7 -5
-13 -15 -14 -16 0 -16 -1 2 -9 19 -8 19 -9 -2 -9 -22 -1 -33 15 -25 37 6 16
34 12 40 -5z m229 -20 c-3 -10 -5 -4 -5 12 0 17 2 24 5 18 2 -7 2 -21 0 -30z
m61 25 c9 -9 12 -9 12 0 0 7 9 12 21 12 17 0 20 -5 17 -32 -2 -24 -8 -34 -23
-35 l-20 -3 20 9 c17 8 18 10 3 10 -10 1 -18 7 -19 14 0 10 -2 10 -6 0 -8 -21
-23 -15 -24 10 -1 21 -1 21 -9 -3 l-8 -25 -1 28 c-1 29 16 36 37 15z m-532
-29 c10 -17 -13 -36 -27 -22 -12 12 -4 33 11 33 5 0 12 -5 16 -11z m337 -26
c-7 -2 -19 -2 -25 0 -7 3 -2 5 12 5 14 0 19 -2 13 -5z m-323 -118 c0 -38 -3
-45 -20 -45 -17 0 -20 7 -20 45 0 38 3 45 20 45 17 0 20 -7 20 -45z m70 -2 c0
-35 -3 -44 -10 -33 -7 11 -12 12 -17 4 -6 -9 -12 -8 -21 2 -7 8 -8 14 -2 14 5
0 10 9 10 20 0 11 -4 20 -10 20 -5 0 -10 5 -10 10 0 6 14 10 30 10 29 0 30 -1
30 -47z m434 -16 c2 -35 -18 -29 -22 7 -2 19 1 27 9 24 7 -2 13 -16 13 -31z
m-361 16 c-7 -2 -13 -11 -13 -18 0 -7 6 -16 13 -18 7 -3 6 -6 -5 -6 -9 -1 -20
4 -23 9 -11 17 3 40 22 39 11 0 13 -3 6 -6z m60 -5 c7 -21 -4 -38 -23 -38 -10
0 -20 6 -23 13 -7 20 4 37 23 37 10 0 20 -6 23 -12z m85 -15 c2 -13 -1 -23 -7
-23 -6 0 -12 10 -12 23 l-2 22 -4 -22 c-2 -13 -9 -23 -14 -23 -5 0 -9 10 -10
23 -1 21 -1 21 -9 -3 l-8 -25 -1 28 c-1 26 2 28 32 25 24 -2 33 -8 35 -25z
m78 16 c5 -8 9 -7 14 1 9 14 40 6 40 -10 0 -5 -8 -10 -17 -11 -15 0 -15 -2 2
-9 19 -8 19 -9 -2 -9 -13 -1 -23 5 -24 12 0 10 -2 10 -6 0 -8 -21 -23 -15 -24
10 l-2 22 -4 -22 c-2 -13 -9 -23 -14 -23 -5 0 -9 10 -10 23 -1 21 -1 21 -9 -3
l-8 -25 -1 28 c-1 23 3 27 28 27 17 0 33 -5 37 -11z m102 -17 c2 -12 -1 -22
-7 -22 -6 0 -11 10 -12 23 -1 21 -1 21 -9 -3 l-8 -25 -1 28 c-1 22 3 28 17 25
9 -2 18 -13 20 -26z m-468 -157 c0 -38 -3 -45 -20 -45 -17 0 -20 7 -20 45 0
38 3 45 20 45 17 0 20 -7 20 -45z m70 -2 c0 -35 -3 -44 -10 -33 -7 11 -12 12
-17 4 -6 -9 -12 -8 -21 2 -7 8 -8 14 -2 14 5 0 10 9 10 20 0 11 -4 20 -10 20
-5 0 -10 5 -10 10 0 6 14 10 30 10 29 0 30 -1 30 -47z m57 -30 c-3 -10 -5 -4
-5 12 0 17 2 24 5 18 2 -7 2 -21 0 -30z m89 23 c3 -8 12 -12 21 -9 12 5 12 7
1 14 -10 7 -10 9 3 9 8 0 20 -5 27 -12 9 -9 12 -9 12 0 0 7 9 12 21 12 17 0
20 -5 17 -32 -2 -24 -8 -34 -23 -35 l-20 -3 20 9 c17 8 18 10 3 10 -10 1 -18
7 -18 14 0 9 -2 9 -8 0 -4 -6 -22 -11 -40 -11 -25 1 -32 6 -33 22 -2 20 -2 20
-6 -1 -2 -13 -9 -23 -14 -23 -5 0 -9 10 -10 23 -1 21 -1 21 -9 -3 l-8 -25 -1
28 c-1 24 3 27 29 27 17 0 33 -6 36 -14z m162 -3 c2 -7 -5 -13 -15 -14 -16 0
-16 -1 2 -9 19 -8 19 -9 -2 -9 -22 -1 -33 15 -25 37 6 16 34 12 40 -5z m-378
-143 c0 -23 -4 -30 -20 -30 -16 0 -20 7 -20 30 0 23 4 30 20 30 16 0 20 -7 20
-30z m55 20 c-28 -12 -45 -12 -45 0 0 6 15 10 33 9 27 0 29 -2 12 -9z m18 -24
c3 -7 1 -18 -5 -24 -8 -8 -8 -15 1 -25 9 -12 8 -16 -3 -20 -10 -4 -16 2 -18
16 -2 16 -9 21 -23 19 -12 -2 -16 0 -9 5 6 4 13 16 17 26 8 20 33 23 40 3z
m337 -21 c0 -28 -4 -35 -19 -35 -20 0 -31 17 -24 38 3 6 11 12 19 12 8 0 14 5
14 10 0 6 2 10 5 10 3 0 5 -16 5 -35z m-279 -7 c2 -22 2 -22 6 -2 3 16 12 21
36 22 23 1 27 -2 17 -8 -13 -8 -12 -10 2 -10 9 0 18 5 20 12 5 14 38 4 38 -12
0 -5 -8 -10 -17 -11 -15 0 -15 -2 2 -9 19 -8 19 -9 -2 -9 -13 -1 -23 4 -23 11
0 9 -3 9 -12 0 -18 -18 -75 -15 -82 4 -9 23 -7 34 4 34 6 0 11 -10 11 -22z
m153 14 c-7 -4 -14 -16 -17 -27 -4 -15 -5 -14 -6 8 -1 20 4 27 17 27 11 0 13
-3 6 -8z m63 -29 c-3 -10 -5 -4 -5 12 0 17 2 24 5 18 2 -7 2 -21 0 -30z m-361
-4 c10 -17 -13 -36 -27 -22 -12 12 -4 33 11 33 5 0 12 -5 16 -11z m337 -26
c-7 -2 -19 -2 -25 0 -7 3 -2 5 12 5 14 0 19 -2 13 -5z m-333 -113 c0 -20 -5
-30 -15 -30 -10 0 -15 10 -15 30 0 20 5 30 15 30 10 0 15 -10 15 -30z m65 20
c-28 -12 -45 -12 -45 0 0 6 15 10 33 9 27 0 29 -2 12 -9z m18 -24 c3 -7 1 -18
-5 -24 -8 -8 -8 -15 1 -25 9 -12 8 -16 -3 -20 -10 -4 -16 2 -18 16 -2 16 -9
21 -23 19 -12 -2 -16 0 -9 5 6 4 13 16 17 26 8 20 33 23 40 3z m117 -21 c0
-28 -4 -35 -19 -35 -20 0 -31 17 -24 38 3 6 11 12 19 12 8 0 14 5 14 10 0 6 2
10 5 10 3 0 5 -16 5 -35z m-63 -22 c-3 -10 -5 -4 -5 12 0 17 2 24 5 18 2 -7 2
-21 0 -30z m-141 -4 c10 -17 -13 -36 -27 -22 -12 12 -4 33 11 33 5 0 12 -5 16
-11z"/>
<path d="M810 4500 c0 -11 7 -20 15 -20 8 0 15 9 15 20 0 11 -7 20 -15 20 -8
0 -15 -9 -15 -20z"/>
<path d="M850 4500 c0 -11 5 -20 10 -20 6 0 10 9 10 20 0 11 -4 20 -10 20 -5
0 -10 -9 -10 -20z"/>
<path d="M1007 4473 c-13 -12 -7 -33 8 -33 8 0 15 9 15 20 0 20 -11 26 -23 13z"/>
<path d="M630 4280 c0 -11 5 -20 10 -20 6 0 10 9 10 20 0 11 -4 20 -10 20 -5
0 -10 -9 -10 -20z"/>
<path d="M760 4255 c0 -8 5 -15 10 -15 6 0 10 7 10 15 0 8 -4 15 -10 15 -5 0
-10 -7 -10 -15z"/>
<path d="M750 4075 c0 -8 5 -15 10 -15 6 0 10 7 10 15 0 8 -4 15 -10 15 -5 0
-10 -7 -10 -15z"/>
<path d="M980 3665 c0 -8 5 -15 10 -15 6 0 10 7 10 15 0 8 -4 15 -10 15 -5 0
-10 -7 -10 -15z"/>
<path d="M770 3665 c0 -8 5 -15 10 -15 6 0 10 7 10 15 0 8 -4 15 -10 15 -5 0
-10 -7 -10 -15z"/>
<path d="M800 3240 c0 -11 7 -20 15 -20 8 0 15 9 15 20 0 11 -7 20 -15 20 -8
0 -15 -9 -15 -20z"/>
<path d="M840 3240 c0 -11 5 -20 10 -20 6 0 10 9 10 20 0 11 -4 20 -10 20 -5
0 -10 -9 -10 -20z"/>
<path d="M2910 3160 c0 -11 7 -20 15 -20 8 0 15 9 15 20 0 11 -7 20 -15 20 -8
0 -15 -9 -15 -20z"/>
<path d="M2950 3160 c0 -11 5 -20 10 -20 6 0 10 9 10 20 0 11 -4 20 -10 20 -5
0 -10 -9 -10 -20z"/>
<path d="M3060 3110 c0 -5 5 -10 10 -10 6 0 10 5 10 10 0 6 -4 10 -10 10 -5 0
-10 -4 -10 -10z"/>
<path d="M510 3020 c0 -11 5 -20 10 -20 6 0 10 9 10 20 0 11 -4 20 -10 20 -5
0 -10 -9 -10 -20z"/>
<path d="M2790 2940 c0 -11 5 -20 10 -20 6 0 10 9 10 20 0 11 -4 20 -10 20 -5
0 -10 -9 -10 -20z"/>
<path d="M510 2850 c0 -11 5 -20 10 -20 6 0 10 9 10 20 0 11 -4 20 -10 20 -5
0 -10 -9 -10 -20z"/>
<path d="M960 2825 c0 -8 5 -15 10 -15 6 0 10 7 10 15 0 8 -4 15 -10 15 -5 0
-10 -7 -10 -15z"/>
<path d="M600 2825 c0 -8 5 -15 10 -15 6 0 10 7 10 15 0 8 -4 15 -10 15 -5 0
-10 -7 -10 -15z"/>
<path d="M724 2825 c8 -8 20 -15 27 -15 7 0 4 6 -7 15 -25 19 -40 19 -20 0z"/>
<path d="M690 2820 c0 -6 7 -10 15 -10 8 0 15 2 15 4 0 2 -7 6 -15 10 -8 3
-15 1 -15 -4z"/>
<path d="M860 2825 c0 -8 5 -15 10 -15 6 0 10 7 10 15 0 8 -4 15 -10 15 -5 0
-10 -7 -10 -15z"/>
<path d="M2790 2770 c0 -11 5 -20 10 -20 6 0 10 9 10 20 0 11 -4 20 -10 20 -5
0 -10 -9 -10 -20z"/>
<path d="M2970 2745 c0 -8 5 -15 10 -15 6 0 10 7 10 15 0 8 -4 15 -10 15 -5 0
-10 -7 -10 -15z"/>
<path d="M510 2670 c0 -11 5 -20 10 -20 6 0 10 9 10 20 0 11 -4 20 -10 20 -5
0 -10 -9 -10 -20z"/>
<path d="M2790 2590 c0 -11 5 -20 10 -20 6 0 10 9 10 20 0 11 -4 20 -10 20 -5
0 -10 -9 -10 -20z"/>
<path d="M2970 2565 c0 -8 5 -15 10 -15 6 0 10 7 10 15 0 8 -4 15 -10 15 -5 0
-10 -7 -10 -15z"/>
<path d="M3070 2565 c0 -8 5 -15 10 -15 6 0 10 7 10 15 0 8 -4 15 -10 15 -5 0
-10 -7 -10 -15z"/>
<path d="M640 2475 c0 -8 5 -15 10 -15 6 0 10 7 10 15 0 8 -4 15 -10 15 -5 0
-10 -7 -10 -15z"/>
<path d="M2910 2385 c0 -8 5 -15 10 -15 6 0 10 7 10 15 0 8 -4 15 -10 15 -5 0
-10 -7 -10 -15z"/>
<path d="M630 2285 c0 -8 5 -15 10 -15 6 0 10 7 10 15 0 8 -4 15 -10 15 -5 0
-10 -7 -10 -15z"/>
<path d="M970 1995 c0 -8 5 -15 10 -15 6 0 10 7 10 15 0 8 -4 15 -10 15 -5 0
-10 -7 -10 -15z"/>
<path d="M850 1995 c0 -8 5 -15 10 -15 6 0 10 7 10 15 0 8 -4 15 -10 15 -5 0
-10 -7 -10 -15z"/>
<path d="M740 1700 c0 -11 7 -20 15 -20 8 0 15 9 15 20 0 11 -7 20 -15 20 -8
0 -15 -9 -15 -20z"/>
<path d="M780 1700 c0 -11 5 -20 10 -20 6 0 10 9 10 20 0 11 -4 20 -10 20 -5
0 -10 -9 -10 -20z"/>
<path d="M1194 1666 c-8 -22 3 -33 18 -18 9 9 9 15 0 24 -9 9 -13 7 -18 -6z"/>
<path d="M1077 1673 c-13 -12 -7 -33 8 -33 8 0 15 9 15 20 0 20 -11 26 -23 13z"/>
<path d="M420 1480 c0 -11 5 -20 10 -20 6 0 10 9 10 20 0 11 -4 20 -10 20 -5
0 -10 -9 -10 -20z"/>
<path d="M510 1455 c0 -8 5 -15 10 -15 6 0 10 7 10 15 0 8 -4 15 -10 15 -5 0
-10 -7 -10 -15z"/>
<path d="M420 1310 c0 -11 5 -20 10 -20 6 0 10 9 10 20 0 11 -4 20 -10 20 -5
0 -10 -9 -10 -20z"/>
<path d="M510 1285 c0 -8 5 -15 10 -15 6 0 10 7 10 15 0 8 -4 15 -10 15 -5 0
-10 -7 -10 -15z"/>
<path d="M570 1285 c0 -8 5 -15 10 -15 6 0 10 7 10 15 0 8 -4 15 -10 15 -5 0
-10 -7 -10 -15z"/>
<path d="M630 1285 c0 -8 5 -15 10 -15 6 0 10 7 10 15 0 8 -4 15 -10 15 -5 0
-10 -7 -10 -15z"/>
<path d="M950 1285 c0 -8 5 -15 10 -15 6 0 10 7 10 15 0 8 -4 15 -10 15 -5 0
-10 -7 -10 -15z"/>
<path d="M420 1130 c0 -11 5 -20 10 -20 6 0 10 9 10 20 0 11 -4 20 -10 20 -5
0 -10 -9 -10 -20z"/>
<path d="M510 1105 c0 -8 5 -15 10 -15 6 0 10 7 10 15 0 8 -4 15 -10 15 -5 0
-10 -7 -10 -15z"/>
<path d="M600 1105 c0 -8 5 -15 10 -15 6 0 10 7 10 15 0 8 -4 15 -10 15 -5 0
-10 -7 -10 -15z"/>
<path d="M660 1105 c0 -8 5 -15 10 -15 6 0 10 7 10 15 0 8 -4 15 -10 15 -5 0
-10 -7 -10 -15z"/>
<path d="M720 1105 c0 -8 5 -15 10 -15 6 0 10 7 10 15 0 8 -4 15 -10 15 -5 0
-10 -7 -10 -15z"/>
<path d="M820 1105 c0 -8 5 -15 10 -15 6 0 10 7 10 15 0 8 -4 15 -10 15 -5 0
-10 -7 -10 -15z"/>
<path d="M984 1105 c8 -8 20 -15 27 -15 7 0 4 6 -7 15 -25 19 -40 19 -20 0z"/>
<path d="M935 1099 c-16 -6 -14 -8 13 -8 33 -1 41 4 20 12 -7 2 -22 1 -33 -4z"/>
<path d="M420 960 c0 -11 5 -20 10 -20 6 0 10 9 10 20 0 11 -4 20 -10 20 -5 0
-10 -9 -10 -20z"/>
<path d="M730 935 c0 -8 5 -15 10 -15 6 0 10 7 10 15 0 8 -4 15 -10 15 -5 0
-10 -7 -10 -15z"/>
<path d="M920 935 c0 -8 5 -15 10 -15 6 0 10 7 10 15 0 8 -4 15 -10 15 -5 0
-10 -7 -10 -15z"/>
<path d="M420 780 c0 -11 5 -20 10 -20 6 0 10 9 10 20 0 11 -4 20 -10 20 -5 0
-10 -9 -10 -20z"/>
<path d="M550 755 c0 -8 5 -15 10 -15 6 0 10 7 10 15 0 8 -4 15 -10 15 -5 0
-10 -7 -10 -15z"/>
<path d="M420 600 c0 -11 5 -20 10 -20 6 0 10 9 10 20 0 11 -4 20 -10 20 -5 0
-10 -9 -10 -20z"/>
<path d="M670 575 c0 -8 5 -15 10 -15 6 0 10 7 10 15 0 8 -4 15 -10 15 -5 0
-10 -7 -10 -15z"/>
<path d="M760 405 c0 -8 5 -15 10 -15 6 0 10 7 10 15 0 8 -4 15 -10 15 -5 0
-10 -7 -10 -15z"/>
<path d="M540 400 c0 -6 7 -10 15 -10 8 0 15 2 15 4 0 2 -7 6 -15 10 -8 3 -15
1 -15 -4z"/>
<path d="M540 215 c0 -8 5 -15 10 -15 6 0 10 7 10 15 0 8 -4 15 -10 15 -5 0
-10 -7 -10 -15z"/>
</g>
</svg>
