<svg width="54" height="54" viewBox="0 0 54 54" fill="none" xmlns="http://www.w3.org/2000/svg">
<g clip-path="url(#clip0_205_5)">
<path d="M46.7732 43.6269C43.8472 38.4979 39.3381 34.8202 34.0759 33.0768C36.6788 31.5057 38.7011 29.1117 39.8323 26.2624C40.9634 23.4132 41.1408 20.2662 40.3372 17.3049C39.5337 14.3435 37.7936 11.7314 35.3842 9.86982C32.9748 8.00822 30.0293 7 27 7C23.9707 7 21.0252 8.00822 18.6158 9.86982C16.2064 11.7314 14.4663 14.3435 13.6628 17.3049C12.8592 20.2662 13.0366 23.4132 14.1677 26.2624C15.2989 29.1117 17.3212 31.5057 19.9241 33.0768C14.6619 34.8183 10.1528 38.496 7.22677 43.6269C7.11947 43.8043 7.0483 44.0017 7.01745 44.2074C6.98661 44.4132 6.99672 44.6231 7.04719 44.8248C7.09765 45.0265 7.18745 45.2159 7.31129 45.3819C7.43513 45.5479 7.5905 45.687 7.76822 45.7911C7.94595 45.8952 8.14244 45.9621 8.34609 45.9879C8.54975 46.0138 8.75645 45.998 8.95399 45.9415C9.15154 45.8851 9.33593 45.7891 9.49629 45.6592C9.65665 45.5293 9.78973 45.3682 9.88767 45.1853C13.5073 38.8427 19.9049 35.0559 27 35.0559C34.0951 35.0559 40.4927 38.8427 44.1123 45.1853C44.2103 45.3682 44.3433 45.5293 44.5037 45.6592C44.6641 45.7891 44.8485 45.8851 45.046 45.9415C45.2435 45.998 45.4502 46.0138 45.6539 45.9879C45.8576 45.9621 46.054 45.8952 46.2318 45.7911C46.4095 45.687 46.5649 45.5479 46.6887 45.3819C46.8125 45.2159 46.9023 45.0265 46.9528 44.8248C47.0033 44.6231 47.0134 44.4132 46.9825 44.2074C46.9517 44.0017 46.8805 43.8043 46.7732 43.6269ZM16.2412 21.0306C16.2412 18.8731 16.8721 16.764 18.0543 14.9701C19.2365 13.1762 20.9168 11.778 22.8828 10.9524C24.8487 10.1268 27.0119 9.91073 29.0989 10.3316C31.186 10.7525 33.103 11.7915 34.6077 13.3171C36.1123 14.8427 37.137 16.7864 37.5521 18.9024C37.9673 21.0185 37.7542 23.2118 36.9399 25.2051C36.1256 27.1984 34.7466 28.9021 32.9773 30.1007C31.208 31.2994 29.1279 31.9392 27 31.9392C24.1475 31.9361 21.4127 30.7858 19.3957 28.7407C17.3787 26.6956 16.2442 23.9228 16.2412 21.0306Z" fill="#A4A4A4"/>
</g>
<defs>
<clipPath id="clip0_205_5">
<rect width="54" height="54" fill="white"/>
</clipPath>
</defs>
</svg>
